<svg width="859pt" height="4040pt"
 viewBox="0.00 0.00 858.71 4040.00" xmlns="http://www.w3.org/2000/svg" xmlns:xlink="http://www.w3.org/1999/xlink">
<g id="graph0" class="graph" transform="scale(1 1) rotate(0) translate(4 4036)">
<title>G</title>
<polygon fill="#ffffff" stroke="transparent" points="-4,4 -4,-4036 854.711,-4036 854.711,4 -4,4"/>
<!-- START -->
<g id="node1" class="node">
<title>START</title>
<ellipse fill="none" stroke="#000000" cx="93.711" cy="-4014" rx="41.7308" ry="18"/>
<text text-anchor="middle" x="93.711" y="-4009.8" font-family="Times,serif" font-size="14.00" fill="#000000">START</text>
</g>
<!-- START&#45;&gt;START -->
<g id="edge1" class="edge">
<title>START&#45;&gt;START</title>
<path fill="none" stroke="#000000" d="M134.392,-4018.0887C145.166,-4017.8551 153.3262,-4016.4922 153.3262,-4014 153.3262,-4012.4034 149.9773,-4011.2703 144.7376,-4010.6007"/>
<polygon fill="#000000" stroke="#000000" points="144.6026,-4007.084 134.392,-4009.9113 144.1371,-4014.0685 144.6026,-4007.084"/>
<text text-anchor="middle" x="156.8262" y="-4009.8" font-family="Times,serif" font-size="14.00" fill="#000000">_</text>
</g>
<!-- START&#45;&gt;START -->
<g id="edge2" class="edge">
<title>START&#45;&gt;START</title>
<path fill="none" stroke="#000000" d="M131.2464,-4021.8552C152.1119,-4023.3215 171.3262,-4020.7031 171.3262,-4014 171.3262,-4008.3966 157.8994,-4005.6476 141.3052,-4005.7529"/>
<polygon fill="#000000" stroke="#000000" points="141.1025,-4002.2581 131.2464,-4006.1448 141.3751,-4009.2528 141.1025,-4002.2581"/>
<text text-anchor="middle" x="196.9847" y="-4009.8" font-family="Times,serif" font-size="14.00" fill="#000000">new_line</text>
</g>
<!-- B1 -->
<g id="node2" class="node">
<title>B1</title>
<ellipse fill="none" stroke="#000000" cx="93.711" cy="-3925.2" rx="27" ry="18"/>
<text text-anchor="middle" x="93.711" y="-3921" font-family="Times,serif" font-size="14.00" fill="#000000">B1</text>
</g>
<!-- START&#45;&gt;B1 -->
<g id="edge3" class="edge">
<title>START&#45;&gt;B1</title>
<path fill="none" stroke="#000000" d="M93.711,-3995.6006C93.711,-3983.4949 93.711,-3967.4076 93.711,-3953.6674"/>
<polygon fill="#000000" stroke="#000000" points="97.2111,-3953.272 93.711,-3943.272 90.2111,-3953.2721 97.2111,-3953.272"/>
<text text-anchor="middle" x="97.211" y="-3965.4" font-family="Times,serif" font-size="14.00" fill="#000000">d</text>
</g>
<!-- C1 -->
<g id="node3" class="node">
<title>C1</title>
<ellipse fill="none" stroke="#000000" cx="93.711" cy="-3836.4" rx="27" ry="18"/>
<text text-anchor="middle" x="93.711" y="-3832.2" font-family="Times,serif" font-size="14.00" fill="#000000">C1</text>
</g>
<!-- B1&#45;&gt;C1 -->
<g id="edge4" class="edge">
<title>B1&#45;&gt;C1</title>
<path fill="none" stroke="#000000" d="M93.711,-3906.8006C93.711,-3894.6949 93.711,-3878.6076 93.711,-3864.8674"/>
<polygon fill="#000000" stroke="#000000" points="97.2111,-3864.472 93.711,-3854.472 90.2111,-3864.4721 97.2111,-3864.472"/>
<text text-anchor="middle" x="97.211" y="-3876.6" font-family="Times,serif" font-size="14.00" fill="#000000">o</text>
</g>
<!-- F1 -->
<g id="node4" class="node">
<title>F1</title>
<ellipse fill="none" stroke="#000000" cx="93.711" cy="-3747.6" rx="27" ry="18"/>
<text text-anchor="middle" x="93.711" y="-3743.4" font-family="Times,serif" font-size="14.00" fill="#000000">F1</text>
</g>
<!-- C1&#45;&gt;F1 -->
<g id="edge5" class="edge">
<title>C1&#45;&gt;F1</title>
<path fill="none" stroke="#000000" d="M93.711,-3818.0006C93.711,-3805.8949 93.711,-3789.8076 93.711,-3776.0674"/>
<polygon fill="#000000" stroke="#000000" points="97.2111,-3775.672 93.711,-3765.672 90.2111,-3775.6721 97.2111,-3775.672"/>
<text text-anchor="middle" x="97.211" y="-3787.8" font-family="Times,serif" font-size="14.00" fill="#000000">_</text>
</g>
<!-- F1&#45;&gt;F1 -->
<g id="edge8" class="edge">
<title>F1&#45;&gt;F1</title>
<path fill="none" stroke="#000000" d="M118.2435,-3755.7211C129.2188,-3756.4945 138.711,-3753.7875 138.711,-3747.6 138.711,-3743.4428 134.4261,-3740.8567 128.2853,-3739.8417"/>
<polygon fill="#000000" stroke="#000000" points="128.3634,-3736.3424 118.2435,-3739.4789 128.1105,-3743.3378 128.3634,-3736.3424"/>
<text text-anchor="middle" x="142.211" y="-3743.4" font-family="Times,serif" font-size="14.00" fill="#000000">_</text>
</g>
<!-- G1 -->
<g id="node8" class="node">
<title>G1</title>
<ellipse fill="none" stroke="#000000" cx="93.711" cy="-3658.8" rx="27" ry="18"/>
<text text-anchor="middle" x="93.711" y="-3654.6" font-family="Times,serif" font-size="14.00" fill="#000000">G1</text>
</g>
<!-- F1&#45;&gt;G1 -->
<g id="edge9" class="edge">
<title>F1&#45;&gt;G1</title>
<path fill="none" stroke="#000000" d="M93.711,-3729.2006C93.711,-3717.0949 93.711,-3701.0076 93.711,-3687.2674"/>
<polygon fill="#000000" stroke="#000000" points="97.2111,-3686.872 93.711,-3676.872 90.2111,-3686.8721 97.2111,-3686.872"/>
<text text-anchor="middle" x="98.7643" y="-3699" font-family="Times,serif" font-size="14.00" fill="#000000">w</text>
</g>
<!-- D1 -->
<g id="node5" class="node">
<title>D1</title>
<ellipse fill="none" stroke="#000000" cx="220.711" cy="-1527.6" rx="27" ry="18"/>
<text text-anchor="middle" x="220.711" y="-1523.4" font-family="Times,serif" font-size="14.00" fill="#000000">D1</text>
</g>
<!-- E1 -->
<g id="node6" class="node">
<title>E1</title>
<ellipse fill="none" stroke="#000000" cx="220.711" cy="-1438.8" rx="27" ry="18"/>
<text text-anchor="middle" x="220.711" y="-1434.6" font-family="Times,serif" font-size="14.00" fill="#000000">E1</text>
</g>
<!-- D1&#45;&gt;E1 -->
<g id="edge6" class="edge">
<title>D1&#45;&gt;E1</title>
<path fill="none" stroke="#000000" d="M220.711,-1509.2006C220.711,-1497.0949 220.711,-1481.0076 220.711,-1467.2674"/>
<polygon fill="#000000" stroke="#000000" points="224.2111,-1466.872 220.711,-1456.872 217.2111,-1466.8721 224.2111,-1466.872"/>
<text text-anchor="middle" x="224.211" y="-1479" font-family="Times,serif" font-size="14.00" fill="#000000">o</text>
</g>
<!-- M1 -->
<g id="node7" class="node">
<title>M1</title>
<ellipse fill="none" stroke="#000000" cx="93.711" cy="-3303.6" rx="27" ry="18"/>
<text text-anchor="middle" x="93.711" y="-3299.4" font-family="Times,serif" font-size="14.00" fill="#000000">M1</text>
</g>
<!-- E1&#45;&gt;M1 -->
<g id="edge7" class="edge">
<title>E1&#45;&gt;M1</title>
<path fill="none" stroke="#000000" d="M194.0512,-1442.1821C171.2952,-1446.3306 138.9697,-1455.3809 117.711,-1474.8 98.6789,-1492.1851 93.711,-1501.8228 93.711,-1527.6 93.711,-3214.8 93.711,-3214.8 93.711,-3214.8 93.711,-3235.0994 93.711,-3258.009 93.711,-3275.4736"/>
<polygon fill="#000000" stroke="#000000" points="90.2111,-3275.5721 93.711,-3285.5721 97.2111,-3275.5721 90.2111,-3275.5721"/>
<text text-anchor="middle" x="96.0413" y="-2367" font-family="Times,serif" font-size="14.00" fill="#000000">r</text>
</g>
<!-- V1 -->
<g id="node14" class="node">
<title>V1</title>
<ellipse fill="none" stroke="#000000" cx="443.711" cy="-3214.8" rx="27" ry="18"/>
<text text-anchor="middle" x="443.711" y="-3210.6" font-family="Times,serif" font-size="14.00" fill="#000000">V1</text>
</g>
<!-- M1&#45;&gt;V1 -->
<g id="edge16" class="edge">
<title>M1&#45;&gt;V1</title>
<path fill="none" stroke="#000000" d="M119.1641,-3297.1422C180.7865,-3281.5077 338.0992,-3241.5952 408.6028,-3223.7075"/>
<polygon fill="#000000" stroke="#000000" points="409.5212,-3227.0854 418.3533,-3221.2336 407.7997,-3220.3004 409.5212,-3227.0854"/>
<text text-anchor="middle" x="304.211" y="-3255" font-family="Times,serif" font-size="14.00" fill="#000000">_</text>
</g>
<!-- H1 -->
<g id="node9" class="node">
<title>H1</title>
<ellipse fill="none" stroke="#000000" cx="93.711" cy="-3570" rx="27" ry="18"/>
<text text-anchor="middle" x="93.711" y="-3565.8" font-family="Times,serif" font-size="14.00" fill="#000000">H1</text>
</g>
<!-- G1&#45;&gt;H1 -->
<g id="edge10" class="edge">
<title>G1&#45;&gt;H1</title>
<path fill="none" stroke="#000000" d="M93.711,-3640.4006C93.711,-3628.2949 93.711,-3612.2076 93.711,-3598.4674"/>
<polygon fill="#000000" stroke="#000000" points="97.2111,-3598.072 93.711,-3588.072 90.2111,-3598.0721 97.2111,-3598.072"/>
<text text-anchor="middle" x="97.211" y="-3610.2" font-family="Times,serif" font-size="14.00" fill="#000000">h</text>
</g>
<!-- I1 -->
<g id="node10" class="node">
<title>I1</title>
<ellipse fill="none" stroke="#000000" cx="93.711" cy="-3481.2" rx="27" ry="18"/>
<text text-anchor="middle" x="93.711" y="-3477" font-family="Times,serif" font-size="14.00" fill="#000000">I1</text>
</g>
<!-- H1&#45;&gt;I1 -->
<g id="edge11" class="edge">
<title>H1&#45;&gt;I1</title>
<path fill="none" stroke="#000000" d="M93.711,-3551.6006C93.711,-3539.4949 93.711,-3523.4076 93.711,-3509.6674"/>
<polygon fill="#000000" stroke="#000000" points="97.2111,-3509.272 93.711,-3499.272 90.2111,-3509.2721 97.2111,-3509.272"/>
<text text-anchor="middle" x="95.6563" y="-3521.4" font-family="Times,serif" font-size="14.00" fill="#000000">i</text>
</g>
<!-- K1 -->
<g id="node11" class="node">
<title>K1</title>
<ellipse fill="none" stroke="#000000" cx="93.711" cy="-3392.4" rx="27" ry="18"/>
<text text-anchor="middle" x="93.711" y="-3388.2" font-family="Times,serif" font-size="14.00" fill="#000000">K1</text>
</g>
<!-- I1&#45;&gt;K1 -->
<g id="edge12" class="edge">
<title>I1&#45;&gt;K1</title>
<path fill="none" stroke="#000000" d="M93.711,-3462.8006C93.711,-3450.6949 93.711,-3434.6076 93.711,-3420.8674"/>
<polygon fill="#000000" stroke="#000000" points="97.2111,-3420.472 93.711,-3410.472 90.2111,-3420.4721 97.2111,-3420.472"/>
<text text-anchor="middle" x="95.6563" y="-3432.6" font-family="Times,serif" font-size="14.00" fill="#000000">l</text>
</g>
<!-- K1&#45;&gt;M1 -->
<g id="edge14" class="edge">
<title>K1&#45;&gt;M1</title>
<path fill="none" stroke="#000000" d="M93.711,-3374.0006C93.711,-3361.8949 93.711,-3345.8076 93.711,-3332.0674"/>
<polygon fill="#000000" stroke="#000000" points="97.2111,-3331.672 93.711,-3321.672 90.2111,-3331.6721 97.2111,-3331.672"/>
<text text-anchor="middle" x="96.8183" y="-3343.8" font-family="Times,serif" font-size="14.00" fill="#000000">e</text>
</g>
<!-- J1 -->
<g id="node12" class="node">
<title>J1</title>
<ellipse fill="none" stroke="#000000" cx="148.711" cy="-1527.6" rx="27" ry="18"/>
<text text-anchor="middle" x="148.711" y="-1523.4" font-family="Times,serif" font-size="14.00" fill="#000000">J1</text>
</g>
<!-- L1 -->
<g id="node13" class="node">
<title>L1</title>
<ellipse fill="none" stroke="#000000" cx="102.711" cy="-1438.8" rx="27" ry="18"/>
<text text-anchor="middle" x="102.711" y="-1434.6" font-family="Times,serif" font-size="14.00" fill="#000000">L1</text>
</g>
<!-- J1&#45;&gt;L1 -->
<g id="edge13" class="edge">
<title>J1&#45;&gt;L1</title>
<path fill="none" stroke="#000000" d="M139.8417,-1510.4785C133.1598,-1497.5795 123.8801,-1479.6655 116.2693,-1464.9734"/>
<polygon fill="#000000" stroke="#000000" points="119.2605,-1463.1384 111.553,-1455.869 113.045,-1466.3582 119.2605,-1463.1384"/>
<text text-anchor="middle" x="134.211" y="-1479" font-family="Times,serif" font-size="14.00" fill="#000000">n</text>
</g>
<!-- L1&#45;&gt;M1 -->
<g id="edge15" class="edge">
<title>L1&#45;&gt;M1</title>
<path fill="none" stroke="#000000" d="M88.6095,-1454.1862C74.7653,-1470.942 55.711,-1499.1681 55.711,-1527.6 55.711,-3214.8 55.711,-3214.8 55.711,-3214.8 55.711,-3237.5795 66.411,-3261.1878 76.4553,-3278.331"/>
<polygon fill="#000000" stroke="#000000" points="73.6644,-3280.4732 81.8959,-3287.1436 79.6208,-3276.7959 73.6644,-3280.4732"/>
<text text-anchor="middle" x="59.211" y="-2367" font-family="Times,serif" font-size="14.00" fill="#000000">d</text>
</g>
<!-- V1&#45;&gt;V1 -->
<g id="edge32" class="edge">
<title>V1&#45;&gt;V1</title>
<path fill="none" stroke="#000000" d="M468.2435,-3222.9211C479.2188,-3223.6945 488.711,-3220.9875 488.711,-3214.8 488.711,-3210.6428 484.4261,-3208.0567 478.2853,-3207.0417"/>
<polygon fill="#000000" stroke="#000000" points="478.3634,-3203.5424 468.2435,-3206.6789 478.1105,-3210.5378 478.3634,-3203.5424"/>
<text text-anchor="middle" x="492.211" y="-3210.6" font-family="Times,serif" font-size="14.00" fill="#000000">_</text>
</g>
<!-- P1 -->
<g id="node19" class="node">
<title>P1</title>
<ellipse fill="none" stroke="#000000" cx="474.711" cy="-3126" rx="27" ry="18"/>
<text text-anchor="middle" x="474.711" y="-3121.8" font-family="Times,serif" font-size="14.00" fill="#000000">P1</text>
</g>
<!-- V1&#45;&gt;P1 -->
<g id="edge31" class="edge">
<title>V1&#45;&gt;P1</title>
<path fill="none" stroke="#000000" d="M441.6769,-3196.6483C441.1743,-3186.1978 441.7007,-3172.9978 445.8164,-3162 447.4728,-3157.5739 449.8992,-3153.2768 452.6531,-3149.284"/>
<polygon fill="#000000" stroke="#000000" points="455.6466,-3151.1366 459.0328,-3141.0974 450.1252,-3146.8338 455.6466,-3151.1366"/>
<text text-anchor="middle" x="449.6583" y="-3166.2" font-family="Times,serif" font-size="14.00" fill="#000000">+</text>
</g>
<!-- V1&#45;&gt;P1 -->
<g id="edge33" class="edge">
<title>V1&#45;&gt;P1</title>
<path fill="none" stroke="#000000" d="M449.8356,-3197.256C454.1805,-3184.8101 460.0996,-3167.8545 465.074,-3153.6055"/>
<polygon fill="#000000" stroke="#000000" points="468.5015,-3154.4064 468.493,-3143.8115 461.8926,-3152.0992 468.5015,-3154.4064"/>
<text text-anchor="middle" x="464.0413" y="-3166.2" font-family="Times,serif" font-size="14.00" fill="#000000">&#45;</text>
</g>
<!-- B2 -->
<g id="node20" class="node">
<title>B2</title>
<ellipse fill="none" stroke="#000000" cx="438.711" cy="-3037.2" rx="27" ry="18"/>
<text text-anchor="middle" x="438.711" y="-3033" font-family="Times,serif" font-size="14.00" fill="#000000">B2</text>
</g>
<!-- V1&#45;&gt;B2 -->
<g id="edge30" class="edge">
<title>V1&#45;&gt;B2</title>
<path fill="none" stroke="#000000" d="M433.8011,-3198.0325C426.1764,-3184.103 416.2642,-3163.4839 412.1138,-3144 406.2449,-3116.4488 415.9556,-3085.212 425.2487,-3063.6709"/>
<polygon fill="#000000" stroke="#000000" points="428.4644,-3065.0547 429.4316,-3054.5041 422.0961,-3062.1487 428.4644,-3065.0547"/>
<text text-anchor="middle" x="426.0096" y="-3121.8" font-family="Times,serif" font-size="14.00" fill="#000000">0|..|9</text>
</g>
<!-- X1 -->
<g id="node29" class="node">
<title>X1</title>
<ellipse fill="none" stroke="#000000" cx="655.711" cy="-2593.2" rx="27" ry="18"/>
<text text-anchor="middle" x="655.711" y="-2589" font-family="Times,serif" font-size="14.00" fill="#000000">X1</text>
</g>
<!-- V1&#45;&gt;X1 -->
<g id="edge29" class="edge">
<title>V1&#45;&gt;X1</title>
<path fill="none" stroke="#000000" d="M470.6706,-3213.7645C552.8616,-3209.8826 794.711,-3192.786 794.711,-3126 794.711,-3126 794.711,-3126 794.711,-2859.6 794.711,-2759.4146 716.4853,-2659.6208 677.4011,-2616.0129"/>
<polygon fill="#000000" stroke="#000000" points="679.9097,-2613.5694 670.5864,-2608.5367 674.7364,-2618.285 679.9097,-2613.5694"/>
<text text-anchor="middle" x="807.2242" y="-2899.8" font-family="Times,serif" font-size="14.00" fill="#000000">a|..|z</text>
</g>
<!-- N1 -->
<g id="node15" class="node">
<title>N1</title>
<ellipse fill="none" stroke="#000000" cx="451.711" cy="-2682" rx="27" ry="18"/>
<text text-anchor="middle" x="451.711" y="-2677.8" font-family="Times,serif" font-size="14.00" fill="#000000">N1</text>
</g>
<!-- Y1 -->
<g id="node16" class="node">
<title>Y1</title>
<ellipse fill="none" stroke="#000000" cx="407.711" cy="-2593.2" rx="27" ry="18"/>
<text text-anchor="middle" x="407.711" y="-2589" font-family="Times,serif" font-size="14.00" fill="#000000">Y1</text>
</g>
<!-- N1&#45;&gt;Y1 -->
<g id="edge17" class="edge">
<title>N1&#45;&gt;Y1</title>
<path fill="none" stroke="#000000" d="M443.2274,-2664.8785C436.8769,-2652.0622 428.0734,-2634.2949 420.82,-2619.6563"/>
<polygon fill="#000000" stroke="#000000" points="423.8947,-2617.9784 416.3187,-2610.572 417.6225,-2621.0863 423.8947,-2617.9784"/>
<text text-anchor="middle" x="446.0096" y="-2633.4" font-family="Times,serif" font-size="14.00" fill="#000000">0|..|9</text>
</g>
<!-- Y1&#45;&gt;Y1 -->
<g id="edge44" class="edge">
<title>Y1&#45;&gt;Y1</title>
<path fill="none" stroke="#000000" d="M432.2435,-2601.3211C443.2188,-2602.0945 452.711,-2599.3875 452.711,-2593.2 452.711,-2589.0428 448.4261,-2586.4567 442.2853,-2585.4417"/>
<polygon fill="#000000" stroke="#000000" points="442.3634,-2581.9424 432.2435,-2585.0789 442.1105,-2588.9378 442.3634,-2581.9424"/>
<text text-anchor="middle" x="466.0096" y="-2589" font-family="Times,serif" font-size="14.00" fill="#000000">0|..|9</text>
</g>
<!-- W1 -->
<g id="node30" class="node">
<title>W1</title>
<ellipse fill="none" stroke="#000000" cx="472.711" cy="-2504.4" rx="27" ry="18"/>
<text text-anchor="middle" x="472.711" y="-2500.2" font-family="Times,serif" font-size="14.00" fill="#000000">W1</text>
</g>
<!-- Y1&#45;&gt;W1 -->
<g id="edge46" class="edge">
<title>Y1&#45;&gt;W1</title>
<path fill="none" stroke="#000000" d="M419.633,-2576.9127C429.437,-2563.519 443.485,-2544.3272 454.6663,-2529.0519"/>
<polygon fill="#000000" stroke="#000000" points="457.7822,-2530.7206 460.8646,-2520.584 452.1338,-2526.586 457.7822,-2530.7206"/>
<text text-anchor="middle" x="449.211" y="-2544.6" font-family="Times,serif" font-size="14.00" fill="#000000">_</text>
</g>
<!-- C2 -->
<g id="node31" class="node">
<title>C2</title>
<ellipse fill="none" stroke="#000000" cx="510.711" cy="-2326.8" rx="27" ry="18"/>
<text text-anchor="middle" x="510.711" y="-2322.6" font-family="Times,serif" font-size="14.00" fill="#000000">C2</text>
</g>
<!-- Y1&#45;&gt;C2 -->
<g id="edge47" class="edge">
<title>Y1&#45;&gt;C2</title>
<path fill="none" stroke="#000000" d="M409.4852,-2574.951C412.339,-2552.6342 419.4947,-2514.3823 436.711,-2486.4 442.9776,-2476.2146 449.6597,-2478.0588 456.711,-2468.4 482.2338,-2433.4393 482.2264,-2420.3905 496.711,-2379.6 499.5671,-2371.557 502.1453,-2362.6433 504.2881,-2354.4653"/>
<polygon fill="#000000" stroke="#000000" points="507.7192,-2355.1718 506.7575,-2344.6208 500.9295,-2353.4687 507.7192,-2355.1718"/>
<text text-anchor="middle" x="471.6583" y="-2455.8" font-family="Times,serif" font-size="14.00" fill="#000000">=</text>
</g>
<!-- D2 -->
<g id="node32" class="node">
<title>D2</title>
<ellipse fill="none" stroke="#000000" cx="696.711" cy="-2415.6" rx="27" ry="18"/>
<text text-anchor="middle" x="696.711" y="-2411.4" font-family="Times,serif" font-size="14.00" fill="#000000">D2</text>
</g>
<!-- Y1&#45;&gt;D2 -->
<g id="edge43" class="edge">
<title>Y1&#45;&gt;D2</title>
<path fill="none" stroke="#000000" d="M432.9641,-2586.4968C482.1325,-2572.3082 591.7498,-2534.9561 658.711,-2468.4 666.9665,-2460.1945 674.7338,-2450.0382 681.0679,-2440.8317"/>
<polygon fill="#000000" stroke="#000000" points="684.0566,-2442.6579 686.6709,-2432.3907 678.2245,-2438.7867 684.0566,-2442.6579"/>
<text text-anchor="middle" x="640.6583" y="-2500.2" font-family="Times,serif" font-size="14.00" fill="#000000">&gt;</text>
</g>
<!-- E2 -->
<g id="node33" class="node">
<title>E2</title>
<ellipse fill="none" stroke="#000000" cx="374.711" cy="-2415.6" rx="27" ry="18"/>
<text text-anchor="middle" x="374.711" y="-2411.4" font-family="Times,serif" font-size="14.00" fill="#000000">E2</text>
</g>
<!-- Y1&#45;&gt;E2 -->
<g id="edge45" class="edge">
<title>Y1&#45;&gt;E2</title>
<path fill="none" stroke="#000000" d="M404.3652,-2575.1934C398.6085,-2544.212 386.7898,-2480.606 379.9387,-2443.7346"/>
<polygon fill="#000000" stroke="#000000" points="383.3337,-2442.8466 378.0657,-2433.6543 376.4515,-2444.1254 383.3337,-2442.8466"/>
<text text-anchor="middle" x="398.6583" y="-2500.2" font-family="Times,serif" font-size="14.00" fill="#000000">&lt;</text>
</g>
<!-- O1 -->
<g id="node17" class="node">
<title>O1</title>
<ellipse fill="none" stroke="#000000" cx="557.711" cy="-2948.4" rx="27" ry="18"/>
<text text-anchor="middle" x="557.711" y="-2944.2" font-family="Times,serif" font-size="14.00" fill="#000000">O1</text>
</g>
<!-- A2 -->
<g id="node18" class="node">
<title>A2</title>
<ellipse fill="none" stroke="#000000" cx="557.711" cy="-2859.6" rx="27" ry="18"/>
<text text-anchor="middle" x="557.711" y="-2855.4" font-family="Times,serif" font-size="14.00" fill="#000000">A2</text>
</g>
<!-- O1&#45;&gt;A2 -->
<g id="edge18" class="edge">
<title>O1&#45;&gt;A2</title>
<path fill="none" stroke="#000000" d="M557.711,-2930.0006C557.711,-2917.8949 557.711,-2901.8076 557.711,-2888.0674"/>
<polygon fill="#000000" stroke="#000000" points="561.2111,-2887.672 557.711,-2877.672 554.2111,-2887.6721 561.2111,-2887.672"/>
<text text-anchor="middle" x="571.0096" y="-2899.8" font-family="Times,serif" font-size="14.00" fill="#000000">0|..|9</text>
</g>
<!-- A2&#45;&gt;A2 -->
<g id="edge48" class="edge">
<title>A2&#45;&gt;A2</title>
<path fill="none" stroke="#000000" d="M582.2435,-2867.7211C593.2188,-2868.4945 602.711,-2865.7875 602.711,-2859.6 602.711,-2855.4428 598.4261,-2852.8567 592.2853,-2851.8417"/>
<polygon fill="#000000" stroke="#000000" points="592.3634,-2848.3424 582.2435,-2851.4789 592.1105,-2855.3378 592.3634,-2848.3424"/>
<text text-anchor="middle" x="616.0096" y="-2855.4" font-family="Times,serif" font-size="14.00" fill="#000000">0|..|9</text>
</g>
<!-- Q1 -->
<g id="node21" class="node">
<title>Q1</title>
<ellipse fill="none" stroke="#000000" cx="428.711" cy="-2770.8" rx="27" ry="18"/>
<text text-anchor="middle" x="428.711" y="-2766.6" font-family="Times,serif" font-size="14.00" fill="#000000">Q1</text>
</g>
<!-- A2&#45;&gt;Q1 -->
<g id="edge53" class="edge">
<title>A2&#45;&gt;Q1</title>
<path fill="none" stroke="#000000" d="M538.6766,-2846.4973C516.8594,-2831.4789 480.9214,-2806.7402 456.0987,-2789.6529"/>
<polygon fill="#000000" stroke="#000000" points="458.0451,-2786.7437 447.8235,-2783.9565 454.076,-2792.5097 458.0451,-2786.7437"/>
<text text-anchor="middle" x="507.8183" y="-2811" font-family="Times,serif" font-size="14.00" fill="#000000">e</text>
</g>
<!-- A2&#45;&gt;W1 -->
<g id="edge49" class="edge">
<title>A2&#45;&gt;W1</title>
<path fill="none" stroke="#000000" d="M557.3891,-2841.5728C557.0968,-2823.6323 556.711,-2795.3141 556.711,-2770.8 556.711,-2770.8 556.711,-2770.8 556.711,-2593.2 556.711,-2561.0222 527.2421,-2535.8095 503.2133,-2520.5996"/>
<polygon fill="#000000" stroke="#000000" points="504.7168,-2517.4197 494.3431,-2515.2663 501.1098,-2523.4188 504.7168,-2517.4197"/>
<text text-anchor="middle" x="560.211" y="-2677.8" font-family="Times,serif" font-size="14.00" fill="#000000">_</text>
</g>
<!-- A2&#45;&gt;C2 -->
<g id="edge50" class="edge">
<title>A2&#45;&gt;C2</title>
<path fill="none" stroke="#000000" d="M571.457,-2843.7995C584.6907,-2826.9217 602.711,-2798.7988 602.711,-2770.8 602.711,-2770.8 602.711,-2770.8 602.711,-2637.6 602.711,-2609.573 605.976,-2602.6118 611.8164,-2575.2 616.8974,-2551.3528 623.3696,-2546.5525 626.711,-2522.4 628.9037,-2506.551 633.719,-2500.7836 626.711,-2486.4 621.0255,-2474.7309 612.4581,-2477.9907 603.711,-2468.4 566.0944,-2427.1555 566.7472,-2409.1991 535.711,-2362.8 533.2837,-2359.1712 530.6886,-2355.3607 528.123,-2351.6322"/>
<polygon fill="#000000" stroke="#000000" points="530.8555,-2349.4305 522.2825,-2343.2053 525.1023,-2353.418 530.8555,-2349.4305"/>
<text text-anchor="middle" x="615.6583" y="-2589" font-family="Times,serif" font-size="14.00" fill="#000000">=</text>
</g>
<!-- A2&#45;&gt;D2 -->
<g id="edge52" class="edge">
<title>A2&#45;&gt;D2</title>
<path fill="none" stroke="#000000" d="M580.9425,-2850.0724C638.4296,-2824.7799 782.711,-2750.0951 782.711,-2637.6 782.711,-2637.6 782.711,-2637.6 782.711,-2504.4 782.711,-2471.7148 752.2741,-2446.4912 727.6147,-2431.4191"/>
<polygon fill="#000000" stroke="#000000" points="729.2628,-2428.3289 718.8581,-2426.3305 725.7457,-2434.3812 729.2628,-2428.3289"/>
<text text-anchor="middle" x="786.6583" y="-2633.4" font-family="Times,serif" font-size="14.00" fill="#000000">&gt;</text>
</g>
<!-- A2&#45;&gt;E2 -->
<g id="edge51" class="edge">
<title>A2&#45;&gt;E2</title>
<path fill="none" stroke="#000000" d="M532.7697,-2852.6644C498.864,-2842.435 437.3435,-2820.97 392.711,-2788.8 326.7487,-2741.2561 289.711,-2718.9108 289.711,-2637.6 289.711,-2637.6 289.711,-2637.6 289.711,-2504.4 289.711,-2471.8982 319.794,-2446.6398 344.1666,-2431.5094"/>
<polygon fill="#000000" stroke="#000000" points="345.9903,-2434.4973 352.8214,-2426.3986 342.4309,-2428.4697 345.9903,-2434.4973"/>
<text text-anchor="middle" x="294.6583" y="-2633.4" font-family="Times,serif" font-size="14.00" fill="#000000">&lt;</text>
</g>
<!-- P1&#45;&gt;B2 -->
<g id="edge19" class="edge">
<title>P1&#45;&gt;B2</title>
<path fill="none" stroke="#000000" d="M467.5986,-3108.456C462.4706,-3095.8071 455.4543,-3078.5002 449.6207,-3064.1105"/>
<polygon fill="#000000" stroke="#000000" points="452.8094,-3062.66 445.8087,-3054.7076 446.3222,-3065.29 452.8094,-3062.66"/>
<text text-anchor="middle" x="473.0096" y="-3077.4" font-family="Times,serif" font-size="14.00" fill="#000000">0|..|9</text>
</g>
<!-- B2&#45;&gt;O1 -->
<g id="edge60" class="edge">
<title>B2&#45;&gt;O1</title>
<path fill="none" stroke="#000000" d="M463.2347,-3029.3357C479.5003,-3023.3283 500.7141,-3013.912 516.711,-3001.2 526.3112,-2993.5712 534.9708,-2983.2456 541.831,-2973.7489"/>
<polygon fill="#000000" stroke="#000000" points="544.8168,-2975.584 547.6007,-2965.3615 539.0495,-2971.6167 544.8168,-2975.584"/>
<text text-anchor="middle" x="534.461" y="-2988.6" font-family="Times,serif" font-size="14.00" fill="#000000">.</text>
</g>
<!-- B2&#45;&gt;B2 -->
<g id="edge56" class="edge">
<title>B2&#45;&gt;B2</title>
<path fill="none" stroke="#000000" d="M463.2435,-3045.3211C474.2188,-3046.0945 483.711,-3043.3875 483.711,-3037.2 483.711,-3033.0428 479.4261,-3030.4567 473.2853,-3029.4417"/>
<polygon fill="#000000" stroke="#000000" points="473.3634,-3025.9424 463.2435,-3029.0789 473.1105,-3032.9378 473.3634,-3025.9424"/>
<text text-anchor="middle" x="497.0096" y="-3033" font-family="Times,serif" font-size="14.00" fill="#000000">0|..|9</text>
</g>
<!-- B2&#45;&gt;Q1 -->
<g id="edge54" class="edge">
<title>B2&#45;&gt;Q1</title>
<path fill="none" stroke="#000000" d="M438.0237,-3018.8892C436.3069,-2973.1536 431.8218,-2853.6719 429.767,-2798.9306"/>
<polygon fill="#000000" stroke="#000000" points="433.2627,-2798.7483 429.3899,-2788.8866 426.2676,-2799.0109 433.2627,-2798.7483"/>
<text text-anchor="middle" x="436.8183" y="-2899.8" font-family="Times,serif" font-size="14.00" fill="#000000">e</text>
</g>
<!-- B2&#45;&gt;W1 -->
<g id="edge58" class="edge">
<title>B2&#45;&gt;W1</title>
<path fill="none" stroke="#000000" d="M445.4074,-3019.454C447.3674,-3013.6992 449.3475,-3007.2408 450.711,-3001.2 492.5537,-2815.8174 507.5136,-2764.2116 487.711,-2575.2 486.2028,-2560.8041 483.0143,-2545.0271 479.9633,-2532.0273"/>
<polygon fill="#000000" stroke="#000000" points="483.3544,-2531.16 477.5807,-2522.2766 476.5545,-2532.8216 483.3544,-2531.16"/>
<text text-anchor="middle" x="498.211" y="-2766.6" font-family="Times,serif" font-size="14.00" fill="#000000">_</text>
</g>
<!-- B2&#45;&gt;C2 -->
<g id="edge59" class="edge">
<title>B2&#45;&gt;C2</title>
<path fill="none" stroke="#000000" d="M414.8218,-3028.7783C384.3946,-3016.343 335.711,-2989.9538 335.711,-2948.4 335.711,-2948.4 335.711,-2948.4 335.711,-2548.8 335.711,-2513.538 356.5695,-2507.6477 384.711,-2486.4 401.5731,-2473.6686 412.7861,-2482.2858 428.711,-2468.4 438.4816,-2459.8805 476.0068,-2391.5224 496.7406,-2352.9883"/>
<polygon fill="#000000" stroke="#000000" points="499.9792,-2354.3551 501.623,-2343.8886 493.8109,-2351.0456 499.9792,-2354.3551"/>
<text text-anchor="middle" x="339.6583" y="-2677.8" font-family="Times,serif" font-size="14.00" fill="#000000">=</text>
</g>
<!-- B2&#45;&gt;D2 -->
<g id="edge55" class="edge">
<title>B2&#45;&gt;D2</title>
<path fill="none" stroke="#000000" d="M463.7751,-3030.3335C548.7598,-3005.3735 820.711,-2911.0739 820.711,-2726.4 820.711,-2726.4 820.711,-2726.4 820.711,-2504.4 820.711,-2460.5923 768.9204,-2436.3192 732.2808,-2424.6283"/>
<polygon fill="#000000" stroke="#000000" points="732.9882,-2421.1863 722.4039,-2421.6588 730.9727,-2427.8899 732.9882,-2421.1863"/>
<text text-anchor="middle" x="824.6583" y="-2722.2" font-family="Times,serif" font-size="14.00" fill="#000000">&gt;</text>
</g>
<!-- B2&#45;&gt;E2 -->
<g id="edge57" class="edge">
<title>B2&#45;&gt;E2</title>
<path fill="none" stroke="#000000" d="M413.1015,-3030.7614C361.8869,-3017.1329 251.711,-2983.7108 251.711,-2948.4 251.711,-2948.4 251.711,-2948.4 251.711,-2504.4 251.711,-2460.8255 303.0839,-2436.4841 339.4281,-2424.7158"/>
<polygon fill="#000000" stroke="#000000" points="340.6833,-2427.9922 349.2253,-2421.7245 338.6391,-2421.2973 340.6833,-2427.9922"/>
<text text-anchor="middle" x="255.6583" y="-2722.2" font-family="Times,serif" font-size="14.00" fill="#000000">&lt;</text>
</g>
<!-- Q1&#45;&gt;N1 -->
<g id="edge20" class="edge">
<title>Q1&#45;&gt;N1</title>
<path fill="none" stroke="#000000" d="M433.3654,-2752.83C436.5764,-2740.4327 440.907,-2723.713 444.5543,-2709.6312"/>
<polygon fill="#000000" stroke="#000000" points="447.9443,-2710.5014 447.0635,-2699.9433 441.1679,-2708.7462 447.9443,-2710.5014"/>
<text text-anchor="middle" x="445.6583" y="-2722.2" font-family="Times,serif" font-size="14.00" fill="#000000">+</text>
</g>
<!-- Q1&#45;&gt;N1 -->
<g id="edge21" class="edge">
<title>Q1&#45;&gt;N1</title>
<path fill="none" stroke="#000000" d="M427.4136,-2752.3705C427.2089,-2742.0668 427.826,-2729.1026 431.0504,-2718 432.0967,-2714.3972 433.572,-2710.7708 435.2584,-2707.2795"/>
<polygon fill="#000000" stroke="#000000" points="438.3518,-2708.9175 440.0662,-2698.4623 432.206,-2705.5664 438.3518,-2708.9175"/>
<text text-anchor="middle" x="433.0413" y="-2722.2" font-family="Times,serif" font-size="14.00" fill="#000000">&#45;</text>
</g>
<!-- Q1&#45;&gt;Y1 -->
<g id="edge22" class="edge">
<title>Q1&#45;&gt;Y1</title>
<path fill="none" stroke="#000000" d="M416.5148,-2754.6758C406.9521,-2740.9587 394.4064,-2720.306 389.1138,-2700 382.1474,-2673.2722 389.2801,-2642.0901 396.6361,-2620.3446"/>
<polygon fill="#000000" stroke="#000000" points="399.9861,-2621.3726 400.0927,-2610.7783 393.4026,-2618.9938 399.9861,-2621.3726"/>
<text text-anchor="middle" x="403.0096" y="-2677.8" font-family="Times,serif" font-size="14.00" fill="#000000">0|..|9</text>
</g>
<!-- R1 -->
<g id="node22" class="node">
<title>R1</title>
<ellipse fill="none" stroke="#000000" cx="419.711" cy="-1794" rx="27" ry="18"/>
<text text-anchor="middle" x="419.711" y="-1789.8" font-family="Times,serif" font-size="14.00" fill="#000000">R1</text>
</g>
<!-- G2 -->
<g id="node23" class="node">
<title>G2</title>
<ellipse fill="none" stroke="#000000" cx="422.711" cy="-1705.2" rx="27" ry="18"/>
<text text-anchor="middle" x="422.711" y="-1701" font-family="Times,serif" font-size="14.00" fill="#000000">G2</text>
</g>
<!-- R1&#45;&gt;G2 -->
<g id="edge23" class="edge">
<title>R1&#45;&gt;G2</title>
<path fill="none" stroke="#000000" d="M420.3326,-1775.6006C420.7416,-1763.4949 421.2851,-1747.4076 421.7493,-1733.6674"/>
<polygon fill="#000000" stroke="#000000" points="425.2607,-1733.3845 422.1005,-1723.272 418.2647,-1733.1481 425.2607,-1733.3845"/>
<text text-anchor="middle" x="435.0096" y="-1745.4" font-family="Times,serif" font-size="14.00" fill="#000000">0|..|9</text>
</g>
<!-- G2&#45;&gt;G2 -->
<g id="edge83" class="edge">
<title>G2&#45;&gt;G2</title>
<path fill="none" stroke="#000000" d="M447.2435,-1713.3211C458.2188,-1714.0945 467.711,-1711.3875 467.711,-1705.2 467.711,-1701.0428 463.4261,-1698.4567 457.2853,-1697.4417"/>
<polygon fill="#000000" stroke="#000000" points="457.3634,-1693.9424 447.2435,-1697.0789 457.1105,-1700.9378 457.3634,-1693.9424"/>
<text text-anchor="middle" x="481.0096" y="-1701" font-family="Times,serif" font-size="14.00" fill="#000000">0|..|9</text>
</g>
<!-- H2 -->
<g id="node35" class="node">
<title>H2</title>
<ellipse fill="none" stroke="#000000" cx="283.711" cy="-1616.4" rx="27" ry="18"/>
<text text-anchor="middle" x="283.711" y="-1612.2" font-family="Times,serif" font-size="14.00" fill="#000000">H2</text>
</g>
<!-- G2&#45;&gt;H2 -->
<g id="edge84" class="edge">
<title>G2&#45;&gt;H2</title>
<path fill="none" stroke="#000000" d="M403.726,-1692.1337C387.8293,-1681.2843 364.4736,-1665.5562 343.711,-1652.4 333.7335,-1646.0778 322.6795,-1639.3647 312.8061,-1633.4697"/>
<polygon fill="#000000" stroke="#000000" points="314.5207,-1630.4173 304.1354,-1628.3206 310.9465,-1636.436 314.5207,-1630.4173"/>
<text text-anchor="middle" x="372.211" y="-1656.6" font-family="Times,serif" font-size="14.00" fill="#000000">_</text>
</g>
<!-- O2 -->
<g id="node36" class="node">
<title>O2</title>
<ellipse fill="none" stroke="#000000" cx="422.711" cy="-1527.6" rx="27" ry="18"/>
<text text-anchor="middle" x="422.711" y="-1523.4" font-family="Times,serif" font-size="14.00" fill="#000000">O2</text>
</g>
<!-- G2&#45;&gt;O2 -->
<g id="edge82" class="edge">
<title>G2&#45;&gt;O2</title>
<path fill="none" stroke="#000000" d="M422.711,-1687.1934C422.711,-1656.212 422.711,-1592.606 422.711,-1555.7346"/>
<polygon fill="#000000" stroke="#000000" points="426.2111,-1555.6542 422.711,-1545.6543 419.2111,-1555.6543 426.2111,-1555.6542"/>
<text text-anchor="middle" x="448.3695" y="-1612.2" font-family="Times,serif" font-size="14.00" fill="#000000">new_line</text>
</g>
<!-- S1 -->
<g id="node24" class="node">
<title>S1</title>
<ellipse fill="none" stroke="#000000" cx="469.711" cy="-2060.4" rx="27" ry="18"/>
<text text-anchor="middle" x="469.711" y="-2056.2" font-family="Times,serif" font-size="14.00" fill="#000000">S1</text>
</g>
<!-- I2 -->
<g id="node25" class="node">
<title>I2</title>
<ellipse fill="none" stroke="#000000" cx="463.711" cy="-1971.6" rx="27" ry="18"/>
<text text-anchor="middle" x="463.711" y="-1967.4" font-family="Times,serif" font-size="14.00" fill="#000000">I2</text>
</g>
<!-- S1&#45;&gt;I2 -->
<g id="edge24" class="edge">
<title>S1&#45;&gt;I2</title>
<path fill="none" stroke="#000000" d="M468.4678,-2042.0006C467.6417,-2029.775 466.5413,-2013.4887 465.6069,-1999.6599"/>
<polygon fill="#000000" stroke="#000000" points="469.0984,-1999.4133 464.9321,-1989.672 462.1143,-1999.8852 469.0984,-1999.4133"/>
<text text-anchor="middle" x="480.0096" y="-2011.8" font-family="Times,serif" font-size="14.00" fill="#000000">0|..|9</text>
</g>
<!-- I2&#45;&gt;I2 -->
<g id="edge90" class="edge">
<title>I2&#45;&gt;I2</title>
<path fill="none" stroke="#000000" d="M488.2435,-1979.7211C499.2188,-1980.4945 508.711,-1977.7875 508.711,-1971.6 508.711,-1967.4428 504.4261,-1964.8567 498.2853,-1963.8417"/>
<polygon fill="#000000" stroke="#000000" points="498.3634,-1960.3424 488.2435,-1963.4789 498.1105,-1967.3378 498.3634,-1960.3424"/>
<text text-anchor="middle" x="522.0096" y="-1967.4" font-family="Times,serif" font-size="14.00" fill="#000000">0|..|9</text>
</g>
<!-- U1 -->
<g id="node28" class="node">
<title>U1</title>
<ellipse fill="none" stroke="#000000" cx="463.711" cy="-1882.8" rx="27" ry="18"/>
<text text-anchor="middle" x="463.711" y="-1878.6" font-family="Times,serif" font-size="14.00" fill="#000000">U1</text>
</g>
<!-- I2&#45;&gt;U1 -->
<g id="edge91" class="edge">
<title>I2&#45;&gt;U1</title>
<path fill="none" stroke="#000000" d="M463.711,-1953.2006C463.711,-1941.0949 463.711,-1925.0076 463.711,-1911.2674"/>
<polygon fill="#000000" stroke="#000000" points="467.2111,-1910.872 463.711,-1900.872 460.2111,-1910.8721 467.2111,-1910.872"/>
<text text-anchor="middle" x="466.8183" y="-1923" font-family="Times,serif" font-size="14.00" fill="#000000">e</text>
</g>
<!-- I2&#45;&gt;H2 -->
<g id="edge93" class="edge">
<title>I2&#45;&gt;H2</title>
<path fill="none" stroke="#000000" d="M453.9985,-1954.525C437.5811,-1925.5014 403.5136,-1864.5751 376.711,-1812 346.2978,-1752.3424 313.1932,-1681.0302 295.8595,-1643.1483"/>
<polygon fill="#000000" stroke="#000000" points="298.9405,-1641.4691 291.6036,-1633.8258 292.5727,-1644.3762 298.9405,-1641.4691"/>
<text text-anchor="middle" x="380.211" y="-1789.8" font-family="Times,serif" font-size="14.00" fill="#000000">_</text>
</g>
<!-- I2&#45;&gt;O2 -->
<g id="edge92" class="edge">
<title>I2&#45;&gt;O2</title>
<path fill="none" stroke="#000000" d="M483.9318,-1959.2864C505.8419,-1944.2215 537.711,-1916.5142 537.711,-1882.8 537.711,-1882.8 537.711,-1882.8 537.711,-1616.4 537.711,-1575.3044 491.1357,-1550.5509 457.2659,-1537.9832"/>
<polygon fill="#000000" stroke="#000000" points="458.2591,-1534.6225 447.6643,-1534.6136 455.9411,-1541.2276 458.2591,-1534.6225"/>
<text text-anchor="middle" x="563.3695" y="-1745.4" font-family="Times,serif" font-size="14.00" fill="#000000">new_line</text>
</g>
<!-- T1 -->
<g id="node26" class="node">
<title>T1</title>
<ellipse fill="none" stroke="#000000" cx="482.711" cy="-2238" rx="27" ry="18"/>
<text text-anchor="middle" x="482.711" y="-2233.8" font-family="Times,serif" font-size="14.00" fill="#000000">T1</text>
</g>
<!-- J2 -->
<g id="node27" class="node">
<title>J2</title>
<ellipse fill="none" stroke="#000000" cx="495.711" cy="-2149.2" rx="27" ry="18"/>
<text text-anchor="middle" x="495.711" y="-2145" font-family="Times,serif" font-size="14.00" fill="#000000">J2</text>
</g>
<!-- T1&#45;&gt;J2 -->
<g id="edge25" class="edge">
<title>T1&#45;&gt;J2</title>
<path fill="none" stroke="#000000" d="M485.3417,-2220.03C487.1391,-2207.753 489.5569,-2191.2372 491.6057,-2177.2421"/>
<polygon fill="#000000" stroke="#000000" points="495.0986,-2177.5448 493.0842,-2167.1433 488.1725,-2176.5308 495.0986,-2177.5448"/>
<text text-anchor="middle" x="503.0096" y="-2189.4" font-family="Times,serif" font-size="14.00" fill="#000000">0|..|9</text>
</g>
<!-- J2&#45;&gt;S1 -->
<g id="edge95" class="edge">
<title>J2&#45;&gt;S1</title>
<path fill="none" stroke="#000000" d="M490.4495,-2131.23C486.8197,-2118.8327 481.9243,-2102.113 477.8012,-2088.0312"/>
<polygon fill="#000000" stroke="#000000" points="481.1337,-2086.9569 474.9647,-2078.3433 474.4157,-2088.9239 481.1337,-2086.9569"/>
<text text-anchor="middle" x="486.461" y="-2100.6" font-family="Times,serif" font-size="14.00" fill="#000000">.</text>
</g>
<!-- J2&#45;&gt;J2 -->
<g id="edge94" class="edge">
<title>J2&#45;&gt;J2</title>
<path fill="none" stroke="#000000" d="M520.2435,-2157.3211C531.2188,-2158.0945 540.711,-2155.3875 540.711,-2149.2 540.711,-2145.0428 536.4261,-2142.4567 530.2853,-2141.4417"/>
<polygon fill="#000000" stroke="#000000" points="530.3634,-2137.9424 520.2435,-2141.0789 530.1105,-2144.9378 530.3634,-2137.9424"/>
<text text-anchor="middle" x="554.0096" y="-2145" font-family="Times,serif" font-size="14.00" fill="#000000">0|..|9</text>
</g>
<!-- J2&#45;&gt;U1 -->
<g id="edge97" class="edge">
<title>J2&#45;&gt;U1</title>
<path fill="none" stroke="#000000" d="M506.857,-2132.5654C528.546,-2097.9642 571.9258,-2016.2475 543.711,-1953.6 533.3696,-1930.6381 511.4927,-1912.1166 493.2263,-1899.7848"/>
<polygon fill="#000000" stroke="#000000" points="494.9173,-1896.7107 484.6156,-1894.2358 491.1255,-1902.5948 494.9173,-1896.7107"/>
<text text-anchor="middle" x="554.8183" y="-2011.8" font-family="Times,serif" font-size="14.00" fill="#000000">e</text>
</g>
<!-- J2&#45;&gt;H2 -->
<g id="edge96" class="edge">
<title>J2&#45;&gt;H2</title>
<path fill="none" stroke="#000000" d="M469.7156,-2144.0398C413.1055,-2132.0572 283.711,-2100.3039 283.711,-2060.4 283.711,-2060.4 283.711,-2060.4 283.711,-1705.2 283.711,-1684.9006 283.711,-1661.991 283.711,-1644.5264"/>
<polygon fill="#000000" stroke="#000000" points="287.2111,-1644.4279 283.711,-1634.4279 280.2111,-1644.4279 287.2111,-1644.4279"/>
<text text-anchor="middle" x="287.211" y="-1878.6" font-family="Times,serif" font-size="14.00" fill="#000000">_</text>
</g>
<!-- J2&#45;&gt;O2 -->
<g id="edge98" class="edge">
<title>J2&#45;&gt;O2</title>
<path fill="none" stroke="#000000" d="M520.2179,-2141.3247C552.0824,-2129.3678 603.711,-2103.3653 603.711,-2060.4 603.711,-2060.4 603.711,-2060.4 603.711,-1616.4 603.711,-1584.1752 510.0711,-1552.3665 457.4958,-1537.0468"/>
<polygon fill="#000000" stroke="#000000" points="458.4553,-1533.6809 447.8783,-1534.2945 456.5294,-1540.4108 458.4553,-1533.6809"/>
<text text-anchor="middle" x="629.3695" y="-1834.2" font-family="Times,serif" font-size="14.00" fill="#000000">new_line</text>
</g>
<!-- U1&#45;&gt;R1 -->
<g id="edge27" class="edge">
<title>U1&#45;&gt;R1</title>
<path fill="none" stroke="#000000" d="M446.7003,-1868.5515C440.4776,-1862.4685 433.9551,-1854.9036 429.8164,-1846.8 425.9959,-1839.3194 423.6126,-1830.5727 422.1283,-1822.3748"/>
<polygon fill="#000000" stroke="#000000" points="425.5841,-1821.8166 420.6884,-1812.4207 418.6562,-1822.8188 425.5841,-1821.8166"/>
<text text-anchor="middle" x="433.6583" y="-1834.2" font-family="Times,serif" font-size="14.00" fill="#000000">+</text>
</g>
<!-- U1&#45;&gt;R1 -->
<g id="edge28" class="edge">
<title>U1&#45;&gt;R1</title>
<path fill="none" stroke="#000000" d="M455.3066,-1865.6661C450.2277,-1855.3286 443.6153,-1841.8988 437.711,-1830 436.1415,-1826.837 434.4903,-1823.5201 432.8508,-1820.2332"/>
<polygon fill="#000000" stroke="#000000" points="435.9392,-1818.5835 428.3387,-1811.2022 429.6772,-1821.7122 435.9392,-1818.5835"/>
<text text-anchor="middle" x="447.0413" y="-1834.2" font-family="Times,serif" font-size="14.00" fill="#000000">&#45;</text>
</g>
<!-- U1&#45;&gt;G2 -->
<g id="edge26" class="edge">
<title>U1&#45;&gt;G2</title>
<path fill="none" stroke="#000000" d="M465.7656,-1864.5481C468.1432,-1836.7616 469.7877,-1782.7004 452.711,-1741.2 450.7993,-1736.5542 448.0644,-1732.055 445.0146,-1727.9021"/>
<polygon fill="#000000" stroke="#000000" points="447.5226,-1725.4408 438.4751,-1719.9278 442.1099,-1729.8796 447.5226,-1725.4408"/>
<text text-anchor="middle" x="479.0096" y="-1789.8" font-family="Times,serif" font-size="14.00" fill="#000000">0|..|9</text>
</g>
<!-- X1&#45;&gt;X1 -->
<g id="edge39" class="edge">
<title>X1&#45;&gt;X1</title>
<path fill="none" stroke="#000000" d="M680.2435,-2601.3211C691.2188,-2602.0945 700.711,-2599.3875 700.711,-2593.2 700.711,-2589.0428 696.4261,-2586.4567 690.2853,-2585.4417"/>
<polygon fill="#000000" stroke="#000000" points="690.3634,-2581.9424 680.2435,-2585.0789 690.1105,-2588.9378 690.3634,-2581.9424"/>
<text text-anchor="middle" x="727.9221" y="-2589" font-family="Times,serif" font-size="14.00" fill="#000000">a|..|z|0|..|9</text>
</g>
<!-- X1&#45;&gt;W1 -->
<g id="edge41" class="edge">
<title>X1&#45;&gt;W1</title>
<path fill="none" stroke="#000000" d="M634.7748,-2581.7375C622.4079,-2574.8431 606.5187,-2565.7688 592.711,-2557.2 581.3364,-2550.1412 579.6038,-2546.5456 567.711,-2540.4 548.4086,-2530.4255 525.6852,-2521.7145 507.3027,-2515.3607"/>
<polygon fill="#000000" stroke="#000000" points="508.1803,-2511.9629 497.5861,-2512.0802 505.9411,-2518.5952 508.1803,-2511.9629"/>
<text text-anchor="middle" x="596.211" y="-2544.6" font-family="Times,serif" font-size="14.00" fill="#000000">_</text>
</g>
<!-- X1&#45;&gt;C2 -->
<g id="edge42" class="edge">
<title>X1&#45;&gt;C2</title>
<path fill="none" stroke="#000000" d="M660.7167,-2575.4453C665.9688,-2552.9502 671.3682,-2513.8148 654.711,-2486.4 645.8541,-2471.8231 632.4949,-2480.8316 620.8164,-2468.4 585.3774,-2430.6756 606.8415,-2400.8118 571.711,-2362.8 563.6594,-2354.0881 553.0139,-2346.8299 542.8728,-2341.167"/>
<polygon fill="#000000" stroke="#000000" points="544.2738,-2337.9501 533.7901,-2336.4189 541.0308,-2344.1535 544.2738,-2337.9501"/>
<text text-anchor="middle" x="624.6583" y="-2455.8" font-family="Times,serif" font-size="14.00" fill="#000000">=</text>
</g>
<!-- X1&#45;&gt;D2 -->
<g id="edge38" class="edge">
<title>X1&#45;&gt;D2</title>
<path fill="none" stroke="#000000" d="M674.6104,-2579.9024C681.627,-2573.8551 688.8201,-2566.063 692.711,-2557.2 708.8232,-2520.4979 706.0408,-2473.134 701.8918,-2443.5607"/>
<polygon fill="#000000" stroke="#000000" points="705.3263,-2442.8678 700.3339,-2433.5229 698.4091,-2443.9414 705.3263,-2442.8678"/>
<text text-anchor="middle" x="708.6583" y="-2500.2" font-family="Times,serif" font-size="14.00" fill="#000000">&gt;</text>
</g>
<!-- X1&#45;&gt;E2 -->
<g id="edge40" class="edge">
<title>X1&#45;&gt;E2</title>
<path fill="none" stroke="#000000" d="M639.7403,-2578.0879C628.2444,-2567.3524 612.2624,-2552.716 597.711,-2540.4 587.8311,-2532.0378 584.7762,-2530.6668 574.8164,-2522.4 537.4799,-2491.41 534.4041,-2474.6585 491.711,-2451.6 466.3005,-2437.8758 434.8995,-2428.578 411.0278,-2422.8745"/>
<polygon fill="#000000" stroke="#000000" points="411.497,-2419.3915 400.9685,-2420.5758 409.9375,-2426.2156 411.497,-2419.3915"/>
<text text-anchor="middle" x="578.6583" y="-2500.2" font-family="Times,serif" font-size="14.00" fill="#000000">&lt;</text>
</g>
<!-- W1&#45;&gt;W1 -->
<g id="edge35" class="edge">
<title>W1&#45;&gt;W1</title>
<path fill="none" stroke="#000000" d="M497.2435,-2512.5211C508.2188,-2513.2945 517.711,-2510.5875 517.711,-2504.4 517.711,-2500.2428 513.4261,-2497.6567 507.2853,-2496.6417"/>
<polygon fill="#000000" stroke="#000000" points="507.3634,-2493.1424 497.2435,-2496.2789 507.1105,-2500.1378 507.3634,-2493.1424"/>
<text text-anchor="middle" x="521.211" y="-2500.2" font-family="Times,serif" font-size="14.00" fill="#000000">_</text>
</g>
<!-- W1&#45;&gt;C2 -->
<g id="edge34" class="edge">
<title>W1&#45;&gt;C2</title>
<path fill="none" stroke="#000000" d="M482.3661,-2487.4597C485.5526,-2481.5306 488.9776,-2474.7635 491.711,-2468.4 508.1523,-2430.1236 514.9549,-2420.7066 521.711,-2379.6 523.0777,-2371.2844 522.1239,-2362.2899 520.3123,-2354.1215"/>
<polygon fill="#000000" stroke="#000000" points="523.6543,-2353.0721 517.6688,-2344.3301 516.8963,-2354.8967 523.6543,-2353.0721"/>
<text text-anchor="middle" x="521.6583" y="-2411.4" font-family="Times,serif" font-size="14.00" fill="#000000">=</text>
</g>
<!-- W1&#45;&gt;D2 -->
<g id="edge36" class="edge">
<title>W1&#45;&gt;D2</title>
<path fill="none" stroke="#000000" d="M497.6827,-2497.1673C509.9868,-2493.7117 525.0747,-2489.6346 538.711,-2486.4 577.9778,-2477.0856 590.9674,-2485.0899 627.711,-2468.4 632.609,-2466.1752 653.4746,-2450.034 670.991,-2436.1772"/>
<polygon fill="#000000" stroke="#000000" points="673.5819,-2438.5891 679.2362,-2429.6292 669.2286,-2433.1074 673.5819,-2438.5891"/>
<text text-anchor="middle" x="653.6583" y="-2455.8" font-family="Times,serif" font-size="14.00" fill="#000000">&gt;</text>
</g>
<!-- W1&#45;&gt;E2 -->
<g id="edge37" class="edge">
<title>W1&#45;&gt;E2</title>
<path fill="none" stroke="#000000" d="M456.5283,-2489.7365C440.7821,-2475.4685 416.668,-2453.6181 398.6926,-2437.3303"/>
<polygon fill="#000000" stroke="#000000" points="400.6783,-2434.4064 390.9178,-2430.2853 395.978,-2439.5936 400.6783,-2434.4064"/>
<text text-anchor="middle" x="435.6583" y="-2455.8" font-family="Times,serif" font-size="14.00" fill="#000000">&lt;</text>
</g>
<!-- C2&#45;&gt;T1 -->
<g id="edge61" class="edge">
<title>C2&#45;&gt;T1</title>
<path fill="none" stroke="#000000" d="M498.3982,-2310.7677C494.4357,-2304.8043 490.4525,-2297.7835 488.0504,-2290.8 485.3833,-2283.0459 483.9253,-2274.3017 483.158,-2266.193"/>
<polygon fill="#000000" stroke="#000000" points="486.6395,-2265.7904 482.5038,-2256.0361 479.6539,-2266.2404 486.6395,-2265.7904"/>
<text text-anchor="middle" x="490.0413" y="-2278.2" font-family="Times,serif" font-size="14.00" fill="#000000">&#45;</text>
</g>
<!-- C2&#45;&gt;T1 -->
<g id="edge65" class="edge">
<title>C2&#45;&gt;T1</title>
<path fill="none" stroke="#000000" d="M505.0448,-2308.83C501.11,-2296.3511 495.7943,-2279.4928 491.336,-2265.3536"/>
<polygon fill="#000000" stroke="#000000" points="494.6185,-2264.1248 488.2732,-2255.6402 487.9425,-2266.2299 494.6185,-2264.1248"/>
<text text-anchor="middle" x="502.6583" y="-2278.2" font-family="Times,serif" font-size="14.00" fill="#000000">+</text>
</g>
<!-- C2&#45;&gt;J2 -->
<g id="edge64" class="edge">
<title>C2&#45;&gt;J2</title>
<path fill="none" stroke="#000000" d="M516.0948,-2308.8747C523.4062,-2281.5148 534.1156,-2228.0032 520.711,-2185.2 519.4318,-2181.1154 517.5078,-2177.0877 515.2841,-2173.2892"/>
<polygon fill="#000000" stroke="#000000" points="518.1691,-2171.3069 509.7138,-2164.9227 512.3424,-2175.1863 518.1691,-2171.3069"/>
<text text-anchor="middle" x="540.0096" y="-2233.8" font-family="Times,serif" font-size="14.00" fill="#000000">0|..|9</text>
</g>
<!-- C2&#45;&gt;C2 -->
<g id="edge62" class="edge">
<title>C2&#45;&gt;C2</title>
<path fill="none" stroke="#000000" d="M535.2435,-2334.9211C546.2188,-2335.6945 555.711,-2332.9875 555.711,-2326.8 555.711,-2322.6428 551.4261,-2320.0567 545.2853,-2319.0417"/>
<polygon fill="#000000" stroke="#000000" points="545.3634,-2315.5424 535.2435,-2318.6789 545.1105,-2322.5378 545.3634,-2315.5424"/>
<text text-anchor="middle" x="559.211" y="-2322.6" font-family="Times,serif" font-size="14.00" fill="#000000">_</text>
</g>
<!-- F2 -->
<g id="node34" class="node">
<title>F2</title>
<ellipse fill="none" stroke="#000000" cx="237.711" cy="-2238" rx="27" ry="18"/>
<text text-anchor="middle" x="237.711" y="-2233.8" font-family="Times,serif" font-size="14.00" fill="#000000">F2</text>
</g>
<!-- C2&#45;&gt;F2 -->
<g id="edge63" class="edge">
<title>C2&#45;&gt;F2</title>
<path fill="none" stroke="#000000" d="M485.1055,-2321.0546C467.3739,-2317.2155 443.1896,-2312.2548 421.711,-2308.8 388.5588,-2303.4675 300.1478,-2308.6143 271.6846,-2290.8 261.8817,-2284.6646 254.3691,-2274.5462 248.932,-2264.7998"/>
<polygon fill="#000000" stroke="#000000" points="251.9765,-2263.0638 244.3481,-2255.7114 245.7264,-2266.2162 251.9765,-2263.0638"/>
<text text-anchor="middle" x="284.2242" y="-2278.2" font-family="Times,serif" font-size="14.00" fill="#000000">a|..|z</text>
</g>
<!-- D2&#45;&gt;T1 -->
<g id="edge68" class="edge">
<title>D2&#45;&gt;T1</title>
<path fill="none" stroke="#000000" d="M693.8905,-2397.288C691.7837,-2386.784 688.2837,-2373.584 682.711,-2362.8 668.3688,-2335.0457 662.5511,-2327.7465 637.711,-2308.8 592.6718,-2274.447 573.2047,-2279.6022 521.711,-2256 519.2536,-2254.8736 516.7102,-2253.7054 514.1543,-2252.5296"/>
<polygon fill="#000000" stroke="#000000" points="515.5226,-2249.3064 504.9756,-2248.3005 512.5933,-2255.6641 515.5226,-2249.3064"/>
<text text-anchor="middle" x="674.0413" y="-2322.6" font-family="Times,serif" font-size="14.00" fill="#000000">&#45;</text>
</g>
<!-- D2&#45;&gt;T1 -->
<g id="edge69" class="edge">
<title>D2&#45;&gt;T1</title>
<path fill="none" stroke="#000000" d="M699.5981,-2397.5353C702.2602,-2373.9738 702.9489,-2332.9242 680.711,-2308.8 630.243,-2254.0511 592.2614,-2279.8141 521.711,-2256 518.9952,-2255.0833 516.2157,-2254.0361 513.4529,-2252.9182"/>
<polygon fill="#000000" stroke="#000000" points="514.8081,-2249.691 504.2405,-2248.9323 512.0285,-2256.1155 514.8081,-2249.691"/>
<text text-anchor="middle" x="701.6583" y="-2322.6" font-family="Times,serif" font-size="14.00" fill="#000000">+</text>
</g>
<!-- D2&#45;&gt;J2 -->
<g id="edge70" class="edge">
<title>D2&#45;&gt;J2</title>
<path fill="none" stroke="#000000" d="M707.2096,-2398.6415C710.2532,-2392.8234 713.1698,-2386.1288 714.711,-2379.6 719.0236,-2361.3317 716.277,-2320.5066 709.711,-2308.8 668.2625,-2234.9014 576.8813,-2185.1577 528.0193,-2162.7552"/>
<polygon fill="#000000" stroke="#000000" points="529.398,-2159.5377 518.8412,-2158.6402 526.5342,-2165.9251 529.398,-2159.5377"/>
<text text-anchor="middle" x="711.0096" y="-2278.2" font-family="Times,serif" font-size="14.00" fill="#000000">0|..|9</text>
</g>
<!-- D2&#45;&gt;C2 -->
<g id="edge66" class="edge">
<title>D2&#45;&gt;C2</title>
<path fill="none" stroke="#000000" d="M673.6245,-2405.847C658.3181,-2399.0923 637.9708,-2389.5543 620.8164,-2379.6 609.5215,-2373.0459 608.1551,-2369.0899 596.711,-2362.8 580.0308,-2353.6321 560.5285,-2345.2907 544.3163,-2338.9509"/>
<polygon fill="#000000" stroke="#000000" points="545.2922,-2335.5769 534.7017,-2335.2726 542.7909,-2342.1148 545.2922,-2335.5769"/>
<text text-anchor="middle" x="624.6583" y="-2367" font-family="Times,serif" font-size="14.00" fill="#000000">=</text>
</g>
<!-- D2&#45;&gt;C2 -->
<g id="edge67" class="edge">
<title>D2&#45;&gt;C2</title>
<path fill="none" stroke="#000000" d="M679.7164,-2401.4811C663.0131,-2387.8119 638.5047,-2368.3623 627.711,-2362.8 602.0394,-2349.5707 570.6545,-2340.2424 546.8554,-2334.4013"/>
<polygon fill="#000000" stroke="#000000" points="547.3679,-2330.9262 536.8313,-2332.0359 545.7602,-2337.7391 547.3679,-2330.9262"/>
<text text-anchor="middle" x="655.211" y="-2367" font-family="Times,serif" font-size="14.00" fill="#000000">_</text>
</g>
<!-- D2&#45;&gt;F2 -->
<g id="edge71" class="edge">
<title>D2&#45;&gt;F2</title>
<path fill="none" stroke="#000000" d="M687.5123,-2398.2998C680.6446,-2386.8388 670.2948,-2372.2327 657.711,-2362.8 639.138,-2348.8779 628.3266,-2357.1683 608.6846,-2344.8 589.2764,-2332.5789 592.0266,-2319.4447 571.711,-2308.8 534.8059,-2289.4631 520.5111,-2299.2412 479.711,-2290.8 406.3056,-2275.613 320.6622,-2256.6273 273.482,-2246.0577"/>
<polygon fill="#000000" stroke="#000000" points="273.9828,-2242.5831 263.4592,-2243.8093 272.4505,-2249.4134 273.9828,-2242.5831"/>
<text text-anchor="middle" x="620.2242" y="-2322.6" font-family="Times,serif" font-size="14.00" fill="#000000">a|..|z</text>
</g>
<!-- E2&#45;&gt;T1 -->
<g id="edge74" class="edge">
<title>E2&#45;&gt;T1</title>
<path fill="none" stroke="#000000" d="M376.8705,-2397.3664C378.5904,-2386.8886 381.5904,-2373.6886 386.711,-2362.8 405.4192,-2323.0186 438.5078,-2283.9678 460.5261,-2260.4289"/>
<polygon fill="#000000" stroke="#000000" points="463.1768,-2262.7205 467.532,-2253.0622 458.1043,-2257.8965 463.1768,-2262.7205"/>
<text text-anchor="middle" x="423.6583" y="-2322.6" font-family="Times,serif" font-size="14.00" fill="#000000">+</text>
</g>
<!-- E2&#45;&gt;T1 -->
<g id="edge75" class="edge">
<title>E2&#45;&gt;T1</title>
<path fill="none" stroke="#000000" d="M372.759,-2397.5651C371.2237,-2375.1248 371.5855,-2336.4017 388.0504,-2308.8 402.7952,-2284.082 429.7945,-2265.198 451.1961,-2253.1743"/>
<polygon fill="#000000" stroke="#000000" points="453.1243,-2256.1114 460.2717,-2248.2905 449.8071,-2249.9472 453.1243,-2256.1114"/>
<text text-anchor="middle" x="391.0413" y="-2322.6" font-family="Times,serif" font-size="14.00" fill="#000000">&#45;</text>
</g>
<!-- E2&#45;&gt;J2 -->
<g id="edge73" class="edge">
<title>E2&#45;&gt;J2</title>
<path fill="none" stroke="#000000" d="M369.8284,-2397.6934C363.2256,-2369.8981 354.2019,-2315.2762 372.1138,-2274 392.2222,-2227.6621 438.0569,-2189.0386 467.9056,-2167.5474"/>
<polygon fill="#000000" stroke="#000000" points="470.0676,-2170.306 476.2374,-2161.693 466.0431,-2164.5785 470.0676,-2170.306"/>
<text text-anchor="middle" x="386.0096" y="-2278.2" font-family="Times,serif" font-size="14.00" fill="#000000">0|..|9</text>
</g>
<!-- E2&#45;&gt;C2 -->
<g id="edge76" class="edge">
<title>E2&#45;&gt;C2</title>
<path fill="none" stroke="#000000" d="M380.6996,-2397.6876C385.3599,-2386.2574 392.8914,-2371.9262 403.8164,-2362.8 423.7563,-2346.1432 451.7407,-2337.0821 474.0749,-2332.2175"/>
<polygon fill="#000000" stroke="#000000" points="474.7645,-2335.649 483.8897,-2330.2655 473.3991,-2328.7834 474.7645,-2335.649"/>
<text text-anchor="middle" x="408.6583" y="-2367" font-family="Times,serif" font-size="14.00" fill="#000000">=</text>
</g>
<!-- E2&#45;&gt;C2 -->
<g id="edge77" class="edge">
<title>E2&#45;&gt;C2</title>
<path fill="none" stroke="#000000" d="M389.8376,-2400.476C401.653,-2389.1852 418.8456,-2373.8616 435.711,-2362.8 448.8309,-2354.195 464.3212,-2346.4105 477.8078,-2340.2996"/>
<polygon fill="#000000" stroke="#000000" points="479.4705,-2343.3918 487.2114,-2336.158 476.649,-2336.9856 479.4705,-2343.3918"/>
<text text-anchor="middle" x="439.211" y="-2367" font-family="Times,serif" font-size="14.00" fill="#000000">_</text>
</g>
<!-- E2&#45;&gt;C2 -->
<g id="edge78" class="edge">
<title>E2&#45;&gt;C2</title>
<path fill="none" stroke="#000000" d="M396.5746,-2404.7051C409.6547,-2397.9359 426.4515,-2388.7961 440.711,-2379.6 449.426,-2373.9796 468.6929,-2359.3854 484.8109,-2346.9617"/>
<polygon fill="#000000" stroke="#000000" points="487.1105,-2349.6079 492.8801,-2340.7218 482.8284,-2344.0705 487.1105,-2349.6079"/>
<text text-anchor="middle" x="466.6583" y="-2367" font-family="Times,serif" font-size="14.00" fill="#000000">&gt;</text>
</g>
<!-- E2&#45;&gt;F2 -->
<g id="edge72" class="edge">
<title>E2&#45;&gt;F2</title>
<path fill="none" stroke="#000000" d="M350.9701,-2406.7309C336.5609,-2400.5777 318.3771,-2391.3743 304.711,-2379.6 270.0949,-2349.7758 252.0573,-2298.11 243.7473,-2266.1164"/>
<polygon fill="#000000" stroke="#000000" points="247.0683,-2264.9624 241.2921,-2256.0805 240.2688,-2266.6258 247.0683,-2264.9624"/>
<text text-anchor="middle" x="288.2242" y="-2322.6" font-family="Times,serif" font-size="14.00" fill="#000000">a|..|z</text>
</g>
<!-- F2&#45;&gt;F2 -->
<g id="edge79" class="edge">
<title>F2&#45;&gt;F2</title>
<path fill="none" stroke="#000000" d="M262.2435,-2246.1211C273.2188,-2246.8945 282.711,-2244.1875 282.711,-2238 282.711,-2233.8428 278.4261,-2231.2567 272.2853,-2230.2417"/>
<polygon fill="#000000" stroke="#000000" points="272.3634,-2226.7424 262.2435,-2229.8789 272.1105,-2233.7378 272.3634,-2226.7424"/>
<text text-anchor="middle" x="309.9221" y="-2233.8" font-family="Times,serif" font-size="14.00" fill="#000000">a|..|z|0|..|9</text>
</g>
<!-- F2&#45;&gt;H2 -->
<g id="edge80" class="edge">
<title>F2&#45;&gt;H2</title>
<path fill="none" stroke="#000000" d="M237.711,-2219.9721C237.711,-2202.0311 237.711,-2173.7125 237.711,-2149.2 237.711,-2149.2 237.711,-2149.2 237.711,-1705.2 237.711,-1681.2481 251.069,-1657.3238 263.3883,-1640.3529"/>
<polygon fill="#000000" stroke="#000000" points="266.3672,-1642.219 269.6595,-1632.1486 260.8059,-1637.9679 266.3672,-1642.219"/>
<text text-anchor="middle" x="241.211" y="-1923" font-family="Times,serif" font-size="14.00" fill="#000000">_</text>
</g>
<!-- F2&#45;&gt;O2 -->
<g id="edge81" class="edge">
<title>F2&#45;&gt;O2</title>
<path fill="none" stroke="#000000" d="M260.6741,-2227.8555C287.6321,-2214.202 328.711,-2187.1676 328.711,-2149.2 328.711,-2149.2 328.711,-2149.2 328.711,-1927.2 328.711,-1925.2565 381.2227,-1654.2812 381.711,-1652.4 390.5746,-1618.2537 403.6963,-1579.8066 412.694,-1554.7236"/>
<polygon fill="#000000" stroke="#000000" points="416.042,-1555.7574 416.1563,-1545.1632 409.4603,-1553.3739 416.042,-1555.7574"/>
<text text-anchor="middle" x="366.3695" y="-1878.6" font-family="Times,serif" font-size="14.00" fill="#000000">new_line</text>
</g>
<!-- H2&#45;&gt;D1 -->
<g id="edge87" class="edge">
<title>H2&#45;&gt;D1</title>
<path fill="none" stroke="#000000" d="M272.1558,-1600.1127C262.7129,-1586.8027 249.2078,-1567.7669 238.404,-1552.5388"/>
<polygon fill="#000000" stroke="#000000" points="241.0472,-1550.2155 232.4063,-1544.0848 235.338,-1554.2659 241.0472,-1550.2155"/>
<text text-anchor="middle" x="262.211" y="-1567.8" font-family="Times,serif" font-size="14.00" fill="#000000">x</text>
</g>
<!-- H2&#45;&gt;E1 -->
<g id="edge85" class="edge">
<title>H2&#45;&gt;E1</title>
<path fill="none" stroke="#000000" d="M280.4102,-1598.2643C276.1964,-1576.7119 268.0671,-1539.8606 256.711,-1509.6 250.941,-1494.2247 242.7484,-1477.8323 235.636,-1464.6967"/>
<polygon fill="#000000" stroke="#000000" points="238.6007,-1462.8254 230.698,-1455.7687 232.4752,-1466.2134 238.6007,-1462.8254"/>
<text text-anchor="middle" x="272.211" y="-1523.4" font-family="Times,serif" font-size="14.00" fill="#000000">o</text>
</g>
<!-- H2&#45;&gt;J1 -->
<g id="edge88" class="edge">
<title>H2&#45;&gt;J1</title>
<path fill="none" stroke="#000000" d="M264.3688,-1603.6771C241.3118,-1588.5107 202.6121,-1563.055 176.3908,-1545.8071"/>
<polygon fill="#000000" stroke="#000000" points="178.2954,-1542.8707 168.0173,-1540.2993 174.4485,-1548.7189 178.2954,-1542.8707"/>
<text text-anchor="middle" x="231.8183" y="-1567.8" font-family="Times,serif" font-size="14.00" fill="#000000">a</text>
</g>
<!-- H2&#45;&gt;H2 -->
<g id="edge86" class="edge">
<title>H2&#45;&gt;H2</title>
<path fill="none" stroke="#000000" d="M308.2435,-1624.5211C319.2188,-1625.2945 328.711,-1622.5875 328.711,-1616.4 328.711,-1612.2428 324.4261,-1609.6567 318.2853,-1608.6417"/>
<polygon fill="#000000" stroke="#000000" points="318.3634,-1605.1424 308.2435,-1608.2789 318.1105,-1612.1378 318.3634,-1605.1424"/>
<text text-anchor="middle" x="332.211" y="-1612.2" font-family="Times,serif" font-size="14.00" fill="#000000">_</text>
</g>
<!-- H2&#45;&gt;O2 -->
<g id="edge89" class="edge">
<title>H2&#45;&gt;O2</title>
<path fill="none" stroke="#000000" d="M291.0637,-1598.9977C296.7309,-1587.4912 305.5972,-1572.8726 317.394,-1563.6 337.3283,-1547.9311 364.4971,-1538.8668 386.2466,-1533.7531"/>
<polygon fill="#000000" stroke="#000000" points="387.0917,-1537.1513 396.1221,-1531.6103 385.6073,-1530.3105 387.0917,-1537.1513"/>
<text text-anchor="middle" x="343.3695" y="-1567.8" font-family="Times,serif" font-size="14.00" fill="#000000">new_line</text>
</g>
<!-- O2&#45;&gt;O2 -->
<g id="edge105" class="edge">
<title>O2&#45;&gt;O2</title>
<path fill="none" stroke="#000000" d="M447.2435,-1535.7211C458.2188,-1536.4945 467.711,-1533.7875 467.711,-1527.6 467.711,-1523.4428 463.4261,-1520.8567 457.2853,-1519.8417"/>
<polygon fill="#000000" stroke="#000000" points="457.3634,-1516.3424 447.2435,-1519.4789 457.1105,-1523.3378 457.3634,-1516.3424"/>
<text text-anchor="middle" x="471.211" y="-1523.4" font-family="Times,serif" font-size="14.00" fill="#000000">_</text>
</g>
<!-- Q2 -->
<g id="node44" class="node">
<title>Q2</title>
<ellipse fill="none" stroke="#000000" cx="422.711" cy="-1438.8" rx="27" ry="18"/>
<text text-anchor="middle" x="422.711" y="-1434.6" font-family="Times,serif" font-size="14.00" fill="#000000">Q2</text>
</g>
<!-- O2&#45;&gt;Q2 -->
<g id="edge106" class="edge">
<title>O2&#45;&gt;Q2</title>
<path fill="none" stroke="#000000" d="M422.711,-1509.2006C422.711,-1497.0949 422.711,-1481.0076 422.711,-1467.2674"/>
<polygon fill="#000000" stroke="#000000" points="426.2111,-1466.872 422.711,-1456.872 419.2111,-1466.8721 426.2111,-1466.872"/>
<text text-anchor="middle" x="435.2242" y="-1479" font-family="Times,serif" font-size="14.00" fill="#000000">a|..|z</text>
</g>
<!-- K2 -->
<g id="node37" class="node">
<title>K2</title>
<ellipse fill="none" stroke="#000000" cx="452.711" cy="-728.4" rx="27" ry="18"/>
<text text-anchor="middle" x="452.711" y="-724.2" font-family="Times,serif" font-size="14.00" fill="#000000">K2</text>
</g>
<!-- U2 -->
<g id="node38" class="node">
<title>U2</title>
<ellipse fill="none" stroke="#000000" cx="416.711" cy="-639.6" rx="27" ry="18"/>
<text text-anchor="middle" x="416.711" y="-635.4" font-family="Times,serif" font-size="14.00" fill="#000000">U2</text>
</g>
<!-- K2&#45;&gt;U2 -->
<g id="edge99" class="edge">
<title>K2&#45;&gt;U2</title>
<path fill="none" stroke="#000000" d="M445.5986,-710.856C440.4706,-698.2071 433.4543,-680.9002 427.6207,-666.5105"/>
<polygon fill="#000000" stroke="#000000" points="430.8094,-665.06 423.8087,-657.1076 424.3222,-667.69 430.8094,-665.06"/>
<text text-anchor="middle" x="451.0096" y="-679.8" font-family="Times,serif" font-size="14.00" fill="#000000">0|..|9</text>
</g>
<!-- U2&#45;&gt;U2 -->
<g id="edge133" class="edge">
<title>U2&#45;&gt;U2</title>
<path fill="none" stroke="#000000" d="M441.2435,-647.7211C452.2188,-648.4945 461.711,-645.7875 461.711,-639.6 461.711,-635.4428 457.4261,-632.8567 451.2853,-631.8417"/>
<polygon fill="#000000" stroke="#000000" points="451.3634,-628.3424 441.2435,-631.4789 451.1105,-635.3378 451.3634,-628.3424"/>
<text text-anchor="middle" x="475.0096" y="-635.4" font-family="Times,serif" font-size="14.00" fill="#000000">0|..|9</text>
</g>
<!-- R2 -->
<g id="node46" class="node">
<title>R2</title>
<ellipse fill="none" stroke="#000000" cx="416.711" cy="-1261.2" rx="27" ry="18"/>
<text text-anchor="middle" x="416.711" y="-1257" font-family="Times,serif" font-size="14.00" fill="#000000">R2</text>
</g>
<!-- U2&#45;&gt;R2 -->
<g id="edge130" class="edge">
<title>U2&#45;&gt;R2</title>
<path fill="none" stroke="#000000" d="M403.765,-655.8321C385.1045,-678.4213 348.6955,-719.5771 310.711,-746.4 265.7574,-778.1441 236.1713,-758.8858 198.711,-799.2 158.2584,-842.7345 175.4182,-869.9517 150.711,-924 54.1953,-1135.1336 -9.2365,-1099.7131 27.711,-1190.4 35.8696,-1210.425 42.2315,-1215.8133 61.711,-1225.2 117.1225,-1251.9015 300.1841,-1258.8399 379.5113,-1260.6091"/>
<polygon fill="#000000" stroke="#000000" points="379.4774,-1264.109 389.5479,-1260.8174 379.6228,-1257.1106 379.4774,-1264.109"/>
<text text-anchor="middle" x="146.6583" y="-946.2" font-family="Times,serif" font-size="14.00" fill="#000000">+</text>
</g>
<!-- U2&#45;&gt;R2 -->
<g id="edge131" class="edge">
<title>U2&#45;&gt;R2</title>
<path fill="none" stroke="#000000" d="M443.7017,-641.9423C472.0931,-645.4821 517.094,-654.2349 549.711,-675.6 608.5869,-714.1655 620.6513,-734.6529 648.711,-799.2 691.6863,-898.0579 683.711,-931.405 683.711,-1039.2 683.711,-1172.4 683.711,-1172.4 683.711,-1172.4 683.711,-1198.1772 680.2999,-1209.69 659.711,-1225.2 627.9781,-1249.1051 513.724,-1257.2828 453.8725,-1259.9636"/>
<polygon fill="#000000" stroke="#000000" points="453.5546,-1256.4738 443.7098,-1260.3893 453.8476,-1263.4676 453.5546,-1256.4738"/>
<text text-anchor="middle" x="687.211" y="-946.2" font-family="Times,serif" font-size="14.00" fill="#000000">*</text>
</g>
<!-- U2&#45;&gt;R2 -->
<g id="edge134" class="edge">
<title>U2&#45;&gt;R2</title>
<path fill="none" stroke="#000000" d="M395.5129,-651.0115C374.3412,-662.2047 340.7182,-679.432 310.711,-692.4 225.9058,-729.0495 178.4859,-696.6178 115.711,-764.4 27.7971,-859.3264 -26.2915,-1040.5152 13.711,-1190.4 18.311,-1207.6357 18.7063,-1215.5518 33.711,-1225.2 62.3836,-1243.6369 288.9273,-1255.5637 379.491,-1259.6376"/>
<polygon fill="#000000" stroke="#000000" points="379.4431,-1263.1388 389.5881,-1260.0845 379.7526,-1256.1456 379.4431,-1263.1388"/>
<text text-anchor="middle" x="23.0413" y="-946.2" font-family="Times,serif" font-size="14.00" fill="#000000">&#45;</text>
</g>
<!-- U2&#45;&gt;R2 -->
<g id="edge135" class="edge">
<title>U2&#45;&gt;R2</title>
<path fill="none" stroke="#000000" d="M439.9764,-648.7723C466.1594,-660.0412 508.6872,-681.3056 536.711,-710.4 643.5137,-821.2828 645.711,-885.2461 645.711,-1039.2 645.711,-1172.4 645.711,-1172.4 645.711,-1172.4 645.711,-1208.9333 615.5186,-1209.1269 582.711,-1225.2 541.3122,-1245.4821 488.5726,-1254.4179 453.7806,-1258.3015"/>
<polygon fill="#000000" stroke="#000000" points="453.1802,-1254.8447 443.5917,-1259.3515 453.8979,-1261.8079 453.1802,-1254.8447"/>
<text text-anchor="middle" x="645.6563" y="-946.2" font-family="Times,serif" font-size="14.00" fill="#000000">/</text>
</g>
<!-- S2 -->
<g id="node48" class="node">
<title>S2</title>
<ellipse fill="none" stroke="#000000" cx="664.711" cy="-550.8" rx="27" ry="18"/>
<text text-anchor="middle" x="664.711" y="-546.6" font-family="Times,serif" font-size="14.00" fill="#000000">S2</text>
</g>
<!-- U2&#45;&gt;S2 -->
<g id="edge132" class="edge">
<title>U2&#45;&gt;S2</title>
<path fill="none" stroke="#000000" d="M440.9418,-630.9238C485.5047,-614.9674 580.5341,-580.9408 631.2275,-562.7893"/>
<polygon fill="#000000" stroke="#000000" points="632.5122,-566.0469 640.7469,-559.3807 630.1524,-559.4567 632.5122,-566.0469"/>
<text text-anchor="middle" x="566.211" y="-591" font-family="Times,serif" font-size="14.00" fill="#000000">_</text>
</g>
<!-- X2 -->
<g id="node49" class="node">
<title>X2</title>
<ellipse fill="none" stroke="#000000" cx="258.711" cy="-462" rx="27" ry="18"/>
<text text-anchor="middle" x="258.711" y="-457.8" font-family="Times,serif" font-size="14.00" fill="#000000">X2</text>
</g>
<!-- U2&#45;&gt;X2 -->
<g id="edge136" class="edge">
<title>U2&#45;&gt;X2</title>
<path fill="none" stroke="#000000" d="M402.6896,-623.8392C374.8145,-592.5063 312.3089,-522.2468 279.5865,-485.4651"/>
<polygon fill="#000000" stroke="#000000" points="281.9628,-482.8704 272.701,-477.7255 276.7329,-487.5232 281.9628,-482.8704"/>
<text text-anchor="middle" x="379.3695" y="-546.6" font-family="Times,serif" font-size="14.00" fill="#000000">new_line</text>
</g>
<!-- L2 -->
<g id="node39" class="node">
<title>L2</title>
<ellipse fill="none" stroke="#000000" cx="344.711" cy="-994.8" rx="27" ry="18"/>
<text text-anchor="middle" x="344.711" y="-990.6" font-family="Times,serif" font-size="14.00" fill="#000000">L2</text>
</g>
<!-- V2 -->
<g id="node40" class="node">
<title>V2</title>
<ellipse fill="none" stroke="#000000" cx="444.711" cy="-906" rx="27" ry="18"/>
<text text-anchor="middle" x="444.711" y="-901.8" font-family="Times,serif" font-size="14.00" fill="#000000">V2</text>
</g>
<!-- L2&#45;&gt;V2 -->
<g id="edge100" class="edge">
<title>L2&#45;&gt;V2</title>
<path fill="none" stroke="#000000" d="M352.3727,-977.4783C357.9809,-966.2975 366.46,-952.0223 377.1138,-942 387.1243,-932.5828 400.0716,-924.9012 411.952,-919.089"/>
<polygon fill="#000000" stroke="#000000" points="413.5626,-922.2005 421.1746,-914.831 410.6284,-915.8451 413.5626,-922.2005"/>
<text text-anchor="middle" x="391.0096" y="-946.2" font-family="Times,serif" font-size="14.00" fill="#000000">0|..|9</text>
</g>
<!-- V2&#45;&gt;V2 -->
<g id="edge137" class="edge">
<title>V2&#45;&gt;V2</title>
<path fill="none" stroke="#000000" d="M469.2435,-914.1211C480.2188,-914.8945 489.711,-912.1875 489.711,-906 489.711,-901.8428 485.4261,-899.2567 479.2853,-898.2417"/>
<polygon fill="#000000" stroke="#000000" points="479.3634,-894.7424 469.2435,-897.8789 479.1105,-901.7378 479.3634,-894.7424"/>
<text text-anchor="middle" x="503.0096" y="-901.8" font-family="Times,serif" font-size="14.00" fill="#000000">0|..|9</text>
</g>
<!-- N2 -->
<g id="node43" class="node">
<title>N2</title>
<ellipse fill="none" stroke="#000000" cx="424.711" cy="-817.2" rx="27" ry="18"/>
<text text-anchor="middle" x="424.711" y="-813" font-family="Times,serif" font-size="14.00" fill="#000000">N2</text>
</g>
<!-- V2&#45;&gt;N2 -->
<g id="edge142" class="edge">
<title>V2&#45;&gt;N2</title>
<path fill="none" stroke="#000000" d="M440.6637,-888.03C437.8986,-875.753 434.1788,-859.2372 431.0268,-845.2421"/>
<polygon fill="#000000" stroke="#000000" points="434.364,-844.1299 428.7523,-835.1433 427.5351,-845.668 434.364,-844.1299"/>
<text text-anchor="middle" x="438.8183" y="-857.4" font-family="Times,serif" font-size="14.00" fill="#000000">e</text>
</g>
<!-- V2&#45;&gt;R2 -->
<g id="edge140" class="edge">
<title>V2&#45;&gt;R2</title>
<path fill="none" stroke="#000000" d="M455.8484,-922.6258C488.0598,-972.9785 574.8754,-1126.4003 507.711,-1225.2 495.5915,-1243.028 473.1311,-1252.0271 453.5577,-1256.5697"/>
<polygon fill="#000000" stroke="#000000" points="452.7684,-1253.1583 443.6553,-1258.5621 454.1492,-1260.0208 452.7684,-1253.1583"/>
<text text-anchor="middle" x="532.211" y="-1079.4" font-family="Times,serif" font-size="14.00" fill="#000000">*</text>
</g>
<!-- V2&#45;&gt;R2 -->
<g id="edge141" class="edge">
<title>V2&#45;&gt;R2</title>
<path fill="none" stroke="#000000" d="M470.3083,-911.9088C506.8786,-922.0429 569.711,-946.4847 569.711,-994.8 569.711,-1172.4 569.711,-1172.4 569.711,-1172.4 569.711,-1225.9664 498.692,-1247.7616 453.4252,-1256.213"/>
<polygon fill="#000000" stroke="#000000" points="452.6186,-1252.8005 443.3616,-1257.9538 453.8118,-1259.6981 452.6186,-1252.8005"/>
<text text-anchor="middle" x="573.6583" y="-1079.4" font-family="Times,serif" font-size="14.00" fill="#000000">+</text>
</g>
<!-- V2&#45;&gt;R2 -->
<g id="edge143" class="edge">
<title>V2&#45;&gt;R2</title>
<path fill="none" stroke="#000000" d="M471.458,-909.0715C496.603,-913.0896 534.2334,-922.1273 560.711,-942 575.5387,-953.1289 578.374,-959.0453 583.711,-976.8 602.8947,-1040.6181 593.4982,-1149.3035 581.711,-1190.4 576.7928,-1207.5476 575.9526,-1214.4572 561.711,-1225.2 544.7708,-1237.9785 490.254,-1249.1283 453.1131,-1255.5114"/>
<polygon fill="#000000" stroke="#000000" points="452.4275,-1252.0774 443.1439,-1257.1828 453.585,-1258.9811 452.4275,-1252.0774"/>
<text text-anchor="middle" x="595.6563" y="-1079.4" font-family="Times,serif" font-size="14.00" fill="#000000">/</text>
</g>
<!-- V2&#45;&gt;R2 -->
<g id="edge144" class="edge">
<title>V2&#45;&gt;R2</title>
<path fill="none" stroke="#000000" d="M446.9663,-924.1029C454.047,-983.2435 474.0737,-1170.1178 451.711,-1225.2 449.4423,-1230.7881 445.8434,-1235.9851 441.7991,-1240.5944"/>
<polygon fill="#000000" stroke="#000000" points="439.2596,-1238.1849 434.7283,-1247.7618 444.2429,-1243.1009 439.2596,-1238.1849"/>
<text text-anchor="middle" x="463.0413" y="-1079.4" font-family="Times,serif" font-size="14.00" fill="#000000">&#45;</text>
</g>
<!-- V2&#45;&gt;S2 -->
<g id="edge139" class="edge">
<title>V2&#45;&gt;S2</title>
<path fill="none" stroke="#000000" d="M450.5886,-888.321C468.3259,-836.9729 525.5158,-685.2464 612.711,-586.8 619.1267,-579.5565 627.2873,-573.0339 635.2313,-567.5944"/>
<polygon fill="#000000" stroke="#000000" points="637.1776,-570.5039 643.6735,-562.1341 633.3759,-564.6262 637.1776,-570.5039"/>
<text text-anchor="middle" x="531.211" y="-724.2" font-family="Times,serif" font-size="14.00" fill="#000000">_</text>
</g>
<!-- V2&#45;&gt;X2 -->
<g id="edge138" class="edge">
<title>V2&#45;&gt;X2</title>
<path fill="none" stroke="#000000" d="M423.736,-894.3061C375.0923,-865.4641 258.711,-785.8197 258.711,-684 258.711,-684 258.711,-684 258.711,-550.8 258.711,-530.5006 258.711,-507.591 258.711,-490.1264"/>
<polygon fill="#000000" stroke="#000000" points="262.2111,-490.0279 258.711,-480.0279 255.2111,-490.0279 262.2111,-490.0279"/>
<text text-anchor="middle" x="285.3695" y="-679.8" font-family="Times,serif" font-size="14.00" fill="#000000">new_line</text>
</g>
<!-- M2 -->
<g id="node41" class="node">
<title>M2</title>
<ellipse fill="none" stroke="#000000" cx="63.711" cy="-1172.4" rx="27" ry="18"/>
<text text-anchor="middle" x="63.711" y="-1168.2" font-family="Times,serif" font-size="14.00" fill="#000000">M2</text>
</g>
<!-- W2 -->
<g id="node42" class="node">
<title>W2</title>
<ellipse fill="none" stroke="#000000" cx="202.711" cy="-1083.6" rx="27" ry="18"/>
<text text-anchor="middle" x="202.711" y="-1079.4" font-family="Times,serif" font-size="14.00" fill="#000000">W2</text>
</g>
<!-- M2&#45;&gt;W2 -->
<g id="edge101" class="edge">
<title>M2&#45;&gt;W2</title>
<path fill="none" stroke="#000000" d="M67.2384,-1154.4547C70.3686,-1143.0106 76.063,-1128.6763 86.1138,-1119.6 98.1041,-1108.7722 137.1929,-1098.0682 166.8353,-1091.1838"/>
<polygon fill="#000000" stroke="#000000" points="167.8853,-1094.5347 176.8663,-1088.914 166.3404,-1087.7073 167.8853,-1094.5347"/>
<text text-anchor="middle" x="100.0096" y="-1123.8" font-family="Times,serif" font-size="14.00" fill="#000000">0|..|9</text>
</g>
<!-- W2&#45;&gt;L2 -->
<g id="edge152" class="edge">
<title>W2&#45;&gt;L2</title>
<path fill="none" stroke="#000000" d="M227.0206,-1075.1959C243.8805,-1068.8345 266.4894,-1059.2197 284.711,-1047.6 298.2676,-1038.9551 311.8446,-1027.3185 322.646,-1017.1697"/>
<polygon fill="#000000" stroke="#000000" points="325.2051,-1019.5644 329.9806,-1010.1068 320.3496,-1014.5221 325.2051,-1019.5644"/>
<text text-anchor="middle" x="308.461" y="-1035" font-family="Times,serif" font-size="14.00" fill="#000000">.</text>
</g>
<!-- W2&#45;&gt;W2 -->
<g id="edge147" class="edge">
<title>W2&#45;&gt;W2</title>
<path fill="none" stroke="#000000" d="M227.2435,-1091.7211C238.2188,-1092.4945 247.711,-1089.7875 247.711,-1083.6 247.711,-1079.4428 243.4261,-1076.8567 237.2853,-1075.8417"/>
<polygon fill="#000000" stroke="#000000" points="237.3634,-1072.3424 227.2435,-1075.4789 237.1105,-1079.3378 237.3634,-1072.3424"/>
<text text-anchor="middle" x="261.0096" y="-1079.4" font-family="Times,serif" font-size="14.00" fill="#000000">0|..|9</text>
</g>
<!-- W2&#45;&gt;N2 -->
<g id="edge149" class="edge">
<title>W2&#45;&gt;N2</title>
<path fill="none" stroke="#000000" d="M215.9333,-1067.7333C253.413,-1022.7576 360.506,-894.246 404.9784,-840.8791"/>
<polygon fill="#000000" stroke="#000000" points="407.8449,-842.9065 411.558,-832.9836 402.4673,-838.4252 407.8449,-842.9065"/>
<text text-anchor="middle" x="322.8183" y="-946.2" font-family="Times,serif" font-size="14.00" fill="#000000">e</text>
</g>
<!-- W2&#45;&gt;R2 -->
<g id="edge145" class="edge">
<title>W2&#45;&gt;R2</title>
<path fill="none" stroke="#000000" d="M182.4922,-1095.6866C173.3778,-1101.923 163.0405,-1110.1962 155.711,-1119.6 126.8589,-1156.6175 118.3608,-1196.7799 155.711,-1225.2 190.1069,-1251.3721 315.9502,-1258.5215 379.484,-1260.4712"/>
<polygon fill="#000000" stroke="#000000" points="379.395,-1263.9699 389.489,-1260.7508 379.5907,-1256.9727 379.395,-1263.9699"/>
<text text-anchor="middle" x="139.211" y="-1168.2" font-family="Times,serif" font-size="14.00" fill="#000000">*</text>
</g>
<!-- W2&#45;&gt;R2 -->
<g id="edge148" class="edge">
<title>W2&#45;&gt;R2</title>
<path fill="none" stroke="#000000" d="M198.3832,-1101.4505C193.9886,-1123.3658 189.4276,-1161.2131 201.8164,-1190.4 210.4982,-1210.8535 218.0453,-1214.8568 237.711,-1225.2 261.9817,-1237.9652 335.2117,-1249.92 380.1341,-1256.3286"/>
<polygon fill="#000000" stroke="#000000" points="379.6909,-1259.8006 390.08,-1257.7231 380.6628,-1252.8684 379.6909,-1259.8006"/>
<text text-anchor="middle" x="206.6583" y="-1168.2" font-family="Times,serif" font-size="14.00" fill="#000000">+</text>
</g>
<!-- W2&#45;&gt;R2 -->
<g id="edge150" class="edge">
<title>W2&#45;&gt;R2</title>
<path fill="none" stroke="#000000" d="M214.8207,-1099.8155C225.4439,-1114.105 241.2525,-1135.5258 254.711,-1154.4 276.9285,-1185.5578 272.9461,-1202.4417 303.711,-1225.2 326.0604,-1241.733 356.2682,-1250.8405 379.8281,-1255.7562"/>
<polygon fill="#000000" stroke="#000000" points="379.3227,-1259.2231 389.8036,-1257.6736 380.644,-1252.3489 379.3227,-1259.2231"/>
<text text-anchor="middle" x="277.0413" y="-1168.2" font-family="Times,serif" font-size="14.00" fill="#000000">&#45;</text>
</g>
<!-- W2&#45;&gt;R2 -->
<g id="edge151" class="edge">
<title>W2&#45;&gt;R2</title>
<path fill="none" stroke="#000000" d="M229.2209,-1087.6961C284.6866,-1096.8643 409.904,-1120.8932 434.711,-1154.4 452.0181,-1177.7767 441.8375,-1211.8971 431.069,-1235.2423"/>
<polygon fill="#000000" stroke="#000000" points="427.9255,-1233.7033 426.6548,-1244.2217 434.2075,-1236.7915 427.9255,-1233.7033"/>
<text text-anchor="middle" x="445.6563" y="-1168.2" font-family="Times,serif" font-size="14.00" fill="#000000">/</text>
</g>
<!-- W2&#45;&gt;S2 -->
<g id="edge146" class="edge">
<title>W2&#45;&gt;S2</title>
<path fill="none" stroke="#000000" d="M227.8265,-1076.745C250.6082,-1070.2252 284.9306,-1059.644 313.711,-1047.6 396.8094,-1012.825 408.3416,-986.4171 486.711,-942 502.9691,-932.7855 512.0685,-937.7624 524.711,-924 538.2401,-909.2724 643.5867,-605.4864 650.711,-586.8 651.8219,-583.8863 652.9911,-580.8433 654.1608,-577.8142"/>
<polygon fill="#000000" stroke="#000000" points="657.4746,-578.949 657.8283,-568.3601 650.9485,-576.4173 657.4746,-578.949"/>
<text text-anchor="middle" x="577.211" y="-813" font-family="Times,serif" font-size="14.00" fill="#000000">_</text>
</g>
<!-- W2&#45;&gt;X2 -->
<g id="edge153" class="edge">
<title>W2&#45;&gt;X2</title>
<path fill="none" stroke="#000000" d="M183.9746,-1070.214C164.4621,-1054.5578 136.711,-1026.6861 136.711,-994.8 136.711,-994.8 136.711,-994.8 136.711,-550.8 136.711,-507.5778 187.3851,-483.1837 223.4159,-471.3016"/>
<polygon fill="#000000" stroke="#000000" points="224.6275,-474.5902 233.1358,-468.2768 222.5474,-467.9063 224.6275,-474.5902"/>
<text text-anchor="middle" x="162.3695" y="-768.6" font-family="Times,serif" font-size="14.00" fill="#000000">new_line</text>
</g>
<!-- N2&#45;&gt;K2 -->
<g id="edge103" class="edge">
<title>N2&#45;&gt;K2</title>
<path fill="none" stroke="#000000" d="M430.3772,-799.23C434.312,-786.7511 439.6277,-769.8928 444.086,-755.7536"/>
<polygon fill="#000000" stroke="#000000" points="447.4795,-756.6299 447.1488,-746.0402 440.8035,-754.5248 447.4795,-756.6299"/>
<text text-anchor="middle" x="444.6583" y="-768.6" font-family="Times,serif" font-size="14.00" fill="#000000">+</text>
</g>
<!-- N2&#45;&gt;K2 -->
<g id="edge104" class="edge">
<title>N2&#45;&gt;K2</title>
<path fill="none" stroke="#000000" d="M424.5038,-799.1639C424.8796,-788.7519 426.2145,-775.5519 430.0504,-764.4 431.3641,-760.5809 433.1506,-756.7506 435.148,-753.0882"/>
<polygon fill="#000000" stroke="#000000" points="438.2047,-754.7976 440.3982,-744.4323 432.2196,-751.1673 438.2047,-754.7976"/>
<text text-anchor="middle" x="432.0413" y="-768.6" font-family="Times,serif" font-size="14.00" fill="#000000">&#45;</text>
</g>
<!-- N2&#45;&gt;U2 -->
<g id="edge102" class="edge">
<title>N2&#45;&gt;U2</title>
<path fill="none" stroke="#000000" d="M413.8696,-800.5622C405.5264,-786.7079 394.6759,-766.1268 390.1138,-746.4 383.7295,-718.7936 393.6657,-687.3342 403.1572,-665.7486"/>
<polygon fill="#000000" stroke="#000000" points="406.3803,-667.118 407.4267,-656.5749 400.034,-664.1643 406.3803,-667.118"/>
<text text-anchor="middle" x="404.0096" y="-724.2" font-family="Times,serif" font-size="14.00" fill="#000000">0|..|9</text>
</g>
<!-- Q2&#45;&gt;Q2 -->
<g id="edge109" class="edge">
<title>Q2&#45;&gt;Q2</title>
<path fill="none" stroke="#000000" d="M447.2435,-1446.9211C458.2188,-1447.6945 467.711,-1444.9875 467.711,-1438.8 467.711,-1434.6428 463.4261,-1432.0567 457.2853,-1431.0417"/>
<polygon fill="#000000" stroke="#000000" points="457.3634,-1427.5424 447.2435,-1430.6789 457.1105,-1434.5378 457.3634,-1427.5424"/>
<text text-anchor="middle" x="494.9221" y="-1434.6" font-family="Times,serif" font-size="14.00" fill="#000000">a|..|z|0|..|9</text>
</g>
<!-- P2 -->
<g id="node45" class="node">
<title>P2</title>
<ellipse fill="none" stroke="#000000" cx="453.711" cy="-1350" rx="27" ry="18"/>
<text text-anchor="middle" x="453.711" y="-1345.8" font-family="Times,serif" font-size="14.00" fill="#000000">P2</text>
</g>
<!-- Q2&#45;&gt;P2 -->
<g id="edge110" class="edge">
<title>Q2&#45;&gt;P2</title>
<path fill="none" stroke="#000000" d="M428.8356,-1421.256C433.1805,-1408.8101 439.0996,-1391.8545 444.074,-1377.6055"/>
<polygon fill="#000000" stroke="#000000" points="447.5015,-1378.4064 447.493,-1367.8115 440.8926,-1376.0992 447.5015,-1378.4064"/>
<text text-anchor="middle" x="444.211" y="-1390.2" font-family="Times,serif" font-size="14.00" fill="#000000">_</text>
</g>
<!-- Q2&#45;&gt;R2 -->
<g id="edge111" class="edge">
<title>Q2&#45;&gt;R2</title>
<path fill="none" stroke="#000000" d="M418.5236,-1420.8806C415.4206,-1406.6405 411.4573,-1386.1671 409.8164,-1368 407.4143,-1341.4049 409.8823,-1311.0106 412.5093,-1289.4648"/>
<polygon fill="#000000" stroke="#000000" points="416.004,-1289.7327 413.8316,-1279.363 409.0632,-1288.8241 416.004,-1289.7327"/>
<text text-anchor="middle" x="414.6583" y="-1345.8" font-family="Times,serif" font-size="14.00" fill="#000000">=</text>
</g>
<!-- P2&#45;&gt;P2 -->
<g id="edge107" class="edge">
<title>P2&#45;&gt;P2</title>
<path fill="none" stroke="#000000" d="M478.2435,-1358.1211C489.2188,-1358.8945 498.711,-1356.1875 498.711,-1350 498.711,-1345.8428 494.4261,-1343.2567 488.2853,-1342.2417"/>
<polygon fill="#000000" stroke="#000000" points="488.3634,-1338.7424 478.2435,-1341.8789 488.1105,-1345.7378 488.3634,-1338.7424"/>
<text text-anchor="middle" x="502.211" y="-1345.8" font-family="Times,serif" font-size="14.00" fill="#000000">_</text>
</g>
<!-- P2&#45;&gt;R2 -->
<g id="edge108" class="edge">
<title>P2&#45;&gt;R2</title>
<path fill="none" stroke="#000000" d="M446.401,-1332.456C441.1306,-1319.8071 433.9194,-1302.5002 427.9237,-1288.1105"/>
<polygon fill="#000000" stroke="#000000" points="431.0828,-1286.5922 424.0058,-1278.7076 424.6213,-1289.2845 431.0828,-1286.5922"/>
<text text-anchor="middle" x="441.6583" y="-1301.4" font-family="Times,serif" font-size="14.00" fill="#000000">=</text>
</g>
<!-- R2&#45;&gt;M2 -->
<g id="edge114" class="edge">
<title>R2&#45;&gt;M2</title>
<path fill="none" stroke="#000000" d="M389.7401,-1260.1841C312.9573,-1257.0435 97.219,-1246.3996 74.0504,-1225.2 67.1909,-1218.9235 64.1025,-1209.5453 62.8897,-1200.4265"/>
<polygon fill="#000000" stroke="#000000" points="66.38,-1200.1627 62.2163,-1190.4203 59.3958,-1200.6328 66.38,-1200.1627"/>
<text text-anchor="middle" x="77.0413" y="-1212.6" font-family="Times,serif" font-size="14.00" fill="#000000">&#45;</text>
</g>
<!-- R2&#45;&gt;M2 -->
<g id="edge116" class="edge">
<title>R2&#45;&gt;M2</title>
<path fill="none" stroke="#000000" d="M389.3319,-1260.7196C322.5617,-1259.1281 153.282,-1252.4438 104.8164,-1225.2 93.6944,-1218.948 84.5498,-1208.3424 77.733,-1198.2693"/>
<polygon fill="#000000" stroke="#000000" points="80.6254,-1196.2935 72.3504,-1189.6772 74.6932,-1200.0097 80.6254,-1196.2935"/>
<text text-anchor="middle" x="109.6583" y="-1212.6" font-family="Times,serif" font-size="14.00" fill="#000000">+</text>
</g>
<!-- R2&#45;&gt;W2 -->
<g id="edge113" class="edge">
<title>R2&#45;&gt;W2</title>
<path fill="none" stroke="#000000" d="M389.5875,-1259.7241C357.0161,-1256.9169 301.6597,-1248.7782 260.711,-1225.2 221.137,-1202.4133 208.558,-1146.3842 204.564,-1112.0292"/>
<polygon fill="#000000" stroke="#000000" points="208.0106,-1111.3142 203.5456,-1101.7062 201.0444,-1112.0015 208.0106,-1111.3142"/>
<text text-anchor="middle" x="241.0096" y="-1168.2" font-family="Times,serif" font-size="14.00" fill="#000000">0|..|9</text>
</g>
<!-- R2&#45;&gt;R2 -->
<g id="edge112" class="edge">
<title>R2&#45;&gt;R2</title>
<path fill="none" stroke="#000000" d="M441.2435,-1269.3211C452.2188,-1270.0945 461.711,-1267.3875 461.711,-1261.2 461.711,-1257.0428 457.4261,-1254.4567 451.2853,-1253.4417"/>
<polygon fill="#000000" stroke="#000000" points="451.3634,-1249.9424 441.2435,-1253.0789 451.1105,-1256.9378 451.3634,-1249.9424"/>
<text text-anchor="middle" x="465.211" y="-1257" font-family="Times,serif" font-size="14.00" fill="#000000">_</text>
</g>
<!-- T2 -->
<g id="node47" class="node">
<title>T2</title>
<ellipse fill="none" stroke="#000000" cx="326.711" cy="-1172.4" rx="27" ry="18"/>
<text text-anchor="middle" x="326.711" y="-1168.2" font-family="Times,serif" font-size="14.00" fill="#000000">T2</text>
</g>
<!-- R2&#45;&gt;T2 -->
<g id="edge115" class="edge">
<title>R2&#45;&gt;T2</title>
<path fill="none" stroke="#000000" d="M403.6896,-1244.8584C394.8225,-1234.0914 382.582,-1219.9092 370.711,-1208.4 365.1572,-1203.0154 358.8799,-1197.5536 352.8427,-1192.5665"/>
<polygon fill="#000000" stroke="#000000" points="354.8285,-1189.6715 344.8494,-1186.1121 350.4308,-1195.1176 354.8285,-1189.6715"/>
<text text-anchor="middle" x="399.2242" y="-1212.6" font-family="Times,serif" font-size="14.00" fill="#000000">a|..|z</text>
</g>
<!-- T2&#45;&gt;R2 -->
<g id="edge125" class="edge">
<title>T2&#45;&gt;R2</title>
<path fill="none" stroke="#000000" d="M353.4001,-1175.3649C374.1664,-1179.2211 401.7279,-1188.078 415.711,-1208.4 420.5881,-1215.4881 422.0239,-1224.4747 421.8861,-1233.0154"/>
<polygon fill="#000000" stroke="#000000" points="418.3919,-1232.802 421.063,-1243.0546 425.3685,-1233.374 418.3919,-1232.802"/>
<text text-anchor="middle" x="425.6583" y="-1212.6" font-family="Times,serif" font-size="14.00" fill="#000000">+</text>
</g>
<!-- T2&#45;&gt;R2 -->
<g id="edge127" class="edge">
<title>T2&#45;&gt;R2</title>
<path fill="none" stroke="#000000" d="M314.7397,-1188.8639C308.2634,-1199.9515 303.0126,-1214.4552 310.711,-1225.2 319.092,-1236.8975 353.2446,-1247.1078 380.5496,-1253.6375"/>
<polygon fill="#000000" stroke="#000000" points="380.0807,-1257.1211 390.6112,-1255.9553 381.6521,-1250.2997 380.0807,-1257.1211"/>
<text text-anchor="middle" x="314.211" y="-1212.6" font-family="Times,serif" font-size="14.00" fill="#000000">*</text>
</g>
<!-- T2&#45;&gt;R2 -->
<g id="edge128" class="edge">
<title>T2&#45;&gt;R2</title>
<path fill="none" stroke="#000000" d="M328.9611,-1190.5387C331.1497,-1201.631 335.4404,-1215.5037 343.8204,-1225.2 353.846,-1236.8004 368.4883,-1245.0381 382.0239,-1250.6782"/>
<polygon fill="#000000" stroke="#000000" points="381.0119,-1254.0382 391.6025,-1254.3368 383.5097,-1247.499 381.0119,-1254.0382"/>
<text text-anchor="middle" x="346.6563" y="-1212.6" font-family="Times,serif" font-size="14.00" fill="#000000">/</text>
</g>
<!-- T2&#45;&gt;R2 -->
<g id="edge129" class="edge">
<title>T2&#45;&gt;R2</title>
<path fill="none" stroke="#000000" d="M338.7216,-1188.9248C346.967,-1199.7691 358.475,-1213.9687 370.0504,-1225.2 376.0397,-1231.0112 382.9489,-1236.7738 389.5841,-1241.9288"/>
<polygon fill="#000000" stroke="#000000" points="387.6612,-1244.8625 397.752,-1248.0915 391.8773,-1239.2746 387.6612,-1244.8625"/>
<text text-anchor="middle" x="373.0413" y="-1212.6" font-family="Times,serif" font-size="14.00" fill="#000000">&#45;</text>
</g>
<!-- T2&#45;&gt;T2 -->
<g id="edge123" class="edge">
<title>T2&#45;&gt;T2</title>
<path fill="none" stroke="#000000" d="M351.2435,-1180.5211C362.2188,-1181.2945 371.711,-1178.5875 371.711,-1172.4 371.711,-1168.2428 367.4261,-1165.6567 361.2853,-1164.6417"/>
<polygon fill="#000000" stroke="#000000" points="361.3634,-1161.1424 351.2435,-1164.2789 361.1105,-1168.1378 361.3634,-1161.1424"/>
<text text-anchor="middle" x="398.9221" y="-1168.2" font-family="Times,serif" font-size="14.00" fill="#000000">a|..|z|0|..|9</text>
</g>
<!-- T2&#45;&gt;S2 -->
<g id="edge126" class="edge">
<title>T2&#45;&gt;S2</title>
<path fill="none" stroke="#000000" d="M351.8507,-1165.387C382.5707,-1155.6644 434.4323,-1135.3642 466.711,-1101.6 503.4678,-1063.1515 632.1151,-709.0247 645.711,-657.6 652.6704,-631.2771 657.829,-600.6233 661.0012,-578.9256"/>
<polygon fill="#000000" stroke="#000000" points="664.5041,-579.1506 662.438,-568.7591 657.573,-578.1709 664.5041,-579.1506"/>
<text text-anchor="middle" x="579.211" y="-857.4" font-family="Times,serif" font-size="14.00" fill="#000000">_</text>
</g>
<!-- T2&#45;&gt;X2 -->
<g id="edge124" class="edge">
<title>T2&#45;&gt;X2</title>
<path fill="none" stroke="#000000" d="M319.6056,-1154.8155C310.0554,-1130.824 292.8745,-1086.3783 280.711,-1047.6 249.0415,-946.6351 220.711,-923.0153 220.711,-817.2 220.711,-817.2 220.711,-817.2 220.711,-550.8 220.711,-528.0205 231.411,-504.4122 241.4553,-487.269"/>
<polygon fill="#000000" stroke="#000000" points="244.6208,-488.8041 246.8959,-478.4564 238.6644,-485.1268 244.6208,-488.8041"/>
<text text-anchor="middle" x="247.3695" y="-813" font-family="Times,serif" font-size="14.00" fill="#000000">new_line</text>
</g>
<!-- S2&#45;&gt;R2 -->
<g id="edge117" class="edge">
<title>S2&#45;&gt;R2</title>
<path fill="none" stroke="#000000" d="M691.8076,-553.7959C715.8172,-557.7177 750.5591,-566.6529 773.711,-586.8 793.4433,-603.9713 799.711,-613.4425 799.711,-639.6 799.711,-1172.4 799.711,-1172.4 799.711,-1172.4 799.711,-1198.5575 795.1978,-1210.2825 773.711,-1225.2 747.8301,-1243.1681 539.8937,-1255.2201 453.8153,-1259.4849"/>
<polygon fill="#000000" stroke="#000000" points="453.5203,-1255.995 443.7025,-1259.9777 453.8611,-1262.9867 453.5203,-1255.995"/>
<text text-anchor="middle" x="803.6583" y="-901.8" font-family="Times,serif" font-size="14.00" fill="#000000">+</text>
</g>
<!-- S2&#45;&gt;R2 -->
<g id="edge118" class="edge">
<title>S2&#45;&gt;R2</title>
<path fill="none" stroke="#000000" d="M691.5561,-553.7109C719.3384,-557.703 763.148,-566.8092 795.711,-586.8 822.7385,-603.3925 843.711,-607.8857 843.711,-639.6 843.711,-1172.4 843.711,-1172.4 843.711,-1172.4 843.711,-1204.1143 824.0744,-1211.0114 795.711,-1225.2 765.6058,-1240.2599 543.4091,-1254.1485 453.909,-1259.1932"/>
<polygon fill="#000000" stroke="#000000" points="453.4636,-1255.7125 443.674,-1259.764 453.8534,-1262.7017 453.4636,-1255.7125"/>
<text text-anchor="middle" x="847.211" y="-901.8" font-family="Times,serif" font-size="14.00" fill="#000000">*</text>
</g>
<!-- S2&#45;&gt;R2 -->
<g id="edge120" class="edge">
<title>S2&#45;&gt;R2</title>
<path fill="none" stroke="#000000" d="M680.6207,-565.4975C696.5494,-581.8878 718.711,-610.0088 718.711,-639.6 718.711,-861.6 718.711,-861.6 718.711,-861.6 718.711,-940.5446 721.711,-960.2554 721.711,-1039.2 721.711,-1172.4 721.711,-1172.4 721.711,-1172.4 721.711,-1201.8403 707.131,-1210.3489 681.711,-1225.2 643.8308,-1247.3307 517.4677,-1256.4055 453.9005,-1259.6402"/>
<polygon fill="#000000" stroke="#000000" points="453.712,-1256.1451 443.8941,-1260.1274 454.0525,-1263.1368 453.712,-1256.1451"/>
<text text-anchor="middle" x="721.0413" y="-901.8" font-family="Times,serif" font-size="14.00" fill="#000000">&#45;</text>
</g>
<!-- S2&#45;&gt;R2 -->
<g id="edge121" class="edge">
<title>S2&#45;&gt;R2</title>
<path fill="none" stroke="#000000" d="M688.1942,-560.4337C716.3264,-573.7206 759.711,-600.5428 759.711,-639.6 759.711,-1172.4 759.711,-1172.4 759.711,-1172.4 759.711,-1205.3364 737.2521,-1210.6353 707.711,-1225.2 663.938,-1246.7816 522.4881,-1256.2299 454.2362,-1259.6134"/>
<polygon fill="#000000" stroke="#000000" points="453.7584,-1256.1321 443.9368,-1260.1052 454.0924,-1263.1241 453.7584,-1256.1321"/>
<text text-anchor="middle" x="761.6563" y="-901.8" font-family="Times,serif" font-size="14.00" fill="#000000">/</text>
</g>
<!-- S2&#45;&gt;S2 -->
<g id="edge119" class="edge">
<title>S2&#45;&gt;S2</title>
<path fill="none" stroke="#000000" d="M689.2435,-558.9211C700.2188,-559.6945 709.711,-556.9875 709.711,-550.8 709.711,-546.6428 705.4261,-544.0567 699.2853,-543.0417"/>
<polygon fill="#000000" stroke="#000000" points="699.3634,-539.5424 689.2435,-542.6789 699.1105,-546.5378 699.3634,-539.5424"/>
<text text-anchor="middle" x="713.211" y="-546.6" font-family="Times,serif" font-size="14.00" fill="#000000">_</text>
</g>
<!-- S2&#45;&gt;X2 -->
<g id="edge122" class="edge">
<title>S2&#45;&gt;X2</title>
<path fill="none" stroke="#000000" d="M639.0059,-545.1778C569.108,-529.8898 375.4265,-487.5279 294.7299,-469.878"/>
<polygon fill="#000000" stroke="#000000" points="295.0822,-466.3724 284.5653,-467.6548 293.5865,-473.2108 295.0822,-466.3724"/>
<text text-anchor="middle" x="523.3695" y="-502.2" font-family="Times,serif" font-size="14.00" fill="#000000">new_line</text>
</g>
<!-- X2&#45;&gt;X2 -->
<g id="edge155" class="edge">
<title>X2&#45;&gt;X2</title>
<path fill="none" stroke="#000000" d="M283.2435,-470.1211C294.2188,-470.8945 303.711,-468.1875 303.711,-462 303.711,-457.8428 299.4261,-455.2567 293.2853,-454.2417"/>
<polygon fill="#000000" stroke="#000000" points="293.3634,-450.7424 283.2435,-453.8789 293.1105,-457.7378 293.3634,-450.7424"/>
<text text-anchor="middle" x="307.211" y="-457.8" font-family="Times,serif" font-size="14.00" fill="#000000">_</text>
</g>
<!-- Y2 -->
<g id="node50" class="node">
<title>Y2</title>
<ellipse fill="none" stroke="#000000" cx="258.711" cy="-373.2" rx="27" ry="18"/>
<text text-anchor="middle" x="258.711" y="-369" font-family="Times,serif" font-size="14.00" fill="#000000">Y2</text>
</g>
<!-- X2&#45;&gt;Y2 -->
<g id="edge154" class="edge">
<title>X2&#45;&gt;Y2</title>
<path fill="none" stroke="#000000" d="M258.711,-443.6006C258.711,-431.4949 258.711,-415.4076 258.711,-401.6674"/>
<polygon fill="#000000" stroke="#000000" points="262.2111,-401.272 258.711,-391.272 255.2111,-401.2721 262.2111,-401.272"/>
<text text-anchor="middle" x="260.6563" y="-413.4" font-family="Times,serif" font-size="14.00" fill="#000000">l</text>
</g>
<!-- A3 -->
<g id="node51" class="node">
<title>A3</title>
<ellipse fill="none" stroke="#000000" cx="258.711" cy="-284.4" rx="27" ry="18"/>
<text text-anchor="middle" x="258.711" y="-280.2" font-family="Times,serif" font-size="14.00" fill="#000000">A3</text>
</g>
<!-- Y2&#45;&gt;A3 -->
<g id="edge156" class="edge">
<title>Y2&#45;&gt;A3</title>
<path fill="none" stroke="#000000" d="M258.711,-354.8006C258.711,-342.6949 258.711,-326.6076 258.711,-312.8674"/>
<polygon fill="#000000" stroke="#000000" points="262.2111,-312.472 258.711,-302.472 255.2111,-312.4721 262.2111,-312.472"/>
<text text-anchor="middle" x="262.211" y="-324.6" font-family="Times,serif" font-size="14.00" fill="#000000">o</text>
</g>
<!-- B3 -->
<g id="node52" class="node">
<title>B3</title>
<ellipse fill="none" stroke="#000000" cx="258.711" cy="-195.6" rx="27" ry="18"/>
<text text-anchor="middle" x="258.711" y="-191.4" font-family="Times,serif" font-size="14.00" fill="#000000">B3</text>
</g>
<!-- A3&#45;&gt;B3 -->
<g id="edge157" class="edge">
<title>A3&#45;&gt;B3</title>
<path fill="none" stroke="#000000" d="M258.711,-266.0006C258.711,-253.8949 258.711,-237.8076 258.711,-224.0674"/>
<polygon fill="#000000" stroke="#000000" points="262.2111,-223.672 258.711,-213.672 255.2111,-223.6721 262.2111,-223.672"/>
<text text-anchor="middle" x="262.211" y="-235.8" font-family="Times,serif" font-size="14.00" fill="#000000">o</text>
</g>
<!-- C3 -->
<g id="node53" class="node">
<title>C3</title>
<ellipse fill="none" stroke="#000000" cx="258.711" cy="-106.8" rx="27" ry="18"/>
<text text-anchor="middle" x="258.711" y="-102.6" font-family="Times,serif" font-size="14.00" fill="#000000">C3</text>
</g>
<!-- B3&#45;&gt;C3 -->
<g id="edge158" class="edge">
<title>B3&#45;&gt;C3</title>
<path fill="none" stroke="#000000" d="M258.711,-177.2006C258.711,-165.0949 258.711,-149.0076 258.711,-135.2674"/>
<polygon fill="#000000" stroke="#000000" points="262.2111,-134.872 258.711,-124.872 255.2111,-134.8721 262.2111,-134.872"/>
<text text-anchor="middle" x="262.211" y="-147" font-family="Times,serif" font-size="14.00" fill="#000000">p</text>
</g>
<!-- C3&#45;&gt;C3 -->
<g id="edge159" class="edge">
<title>C3&#45;&gt;C3</title>
<path fill="none" stroke="#000000" d="M285.0576,-110.9089C295.2442,-111.0915 303.711,-109.7219 303.711,-106.8 303.711,-104.9282 300.2362,-103.6934 295.0605,-103.0956"/>
<polygon fill="#000000" stroke="#000000" points="295.1909,-99.5982 285.0576,-102.6911 294.908,-106.5924 295.1909,-99.5982"/>
<text text-anchor="middle" x="329.3695" y="-102.6" font-family="Times,serif" font-size="14.00" fill="#000000">new_line</text>
</g>
<!-- C3&#45;&gt;C3 -->
<g id="edge160" class="edge">
<title>C3&#45;&gt;C3</title>
<path fill="none" stroke="#000000" d="M284.037,-113.1763C313.9758,-117.0465 355.028,-114.9211 355.028,-106.8 355.028,-99.5672 322.4648,-97.0901 294.1912,-99.3689"/>
<polygon fill="#000000" stroke="#000000" points="293.6218,-95.9092 284.037,-100.4237 294.3451,-102.8717 293.6218,-95.9092"/>
<text text-anchor="middle" x="358.528" y="-102.6" font-family="Times,serif" font-size="14.00" fill="#000000">_</text>
</g>
<!-- D3 -->
<g id="node54" class="node">
<title>D3</title>
<ellipse fill="none" stroke="#000000" cx="258.711" cy="-18" rx="27" ry="18"/>
<text text-anchor="middle" x="258.711" y="-13.8" font-family="Times,serif" font-size="14.00" fill="#000000">D3</text>
</g>
<!-- C3&#45;&gt;D3 -->
<g id="edge161" class="edge">
<title>C3&#45;&gt;D3</title>
<path fill="none" stroke="#000000" d="M258.711,-88.4006C258.711,-76.2949 258.711,-60.2076 258.711,-46.4674"/>
<polygon fill="#000000" stroke="#000000" points="262.2111,-46.072 258.711,-36.072 255.2111,-46.0721 262.2111,-46.072"/>
<text text-anchor="middle" x="260.6563" y="-58.2" font-family="Times,serif" font-size="14.00" fill="#000000">;</text>
</g>
</g>
</svg>